<svg width="16" height="21" viewBox="0 0 16 21" fill="none" xmlns="http://www.w3.org/2000/svg">
<path d="M13.09 3.56002C12.39 2.53002 11.59 1.57002 10.69 0.71002C10.34 0.37002 9.75 0.69002 9.85 1.17002C10.04 2.11002 10.24 3.35002 10.24 4.46002C10.24 6.52002 8.89 8.19002 6.83 8.19002C5.29 8.19002 4.03 7.26002 3.48 5.93002C3.38 5.73002 3.34 5.61002 3.28 5.39002C3.17 4.97002 2.62 4.84002 2.38 5.21002C2.2 5.48002 2.03 5.75002 1.87 6.04002C0.68 8.08002 0 10.46 0 13C0 17.42 3.58 21 8 21C12.42 21 16 17.42 16 13C16 9.51002 14.92 6.27002 13.09 3.56002ZM7.71 18C5.93 18 4.49 16.6 4.49 14.86C4.49 13.24 5.54 12.1 7.3 11.74C8.77 11.44 10.28 10.81 11.33 9.82002C11.61 9.56002 12.07 9.68002 12.15 10.05C12.38 11.07 12.5 12.13 12.5 13.2C12.51 15.85 10.36 18 7.71 18Z" fill="#F0584F"/>
</svg>
