<svg width="400" height="291" viewBox="0 0 400 291" fill="none" xmlns="http://www.w3.org/2000/svg">
<path opacity="0.2" d="M394.911 87.6325C394.841 87.9588 394.775 88.2851 394.698 88.6078C392.295 99.6989 388.368 110.387 382.528 120.202C382.333 120.528 382.139 120.854 381.941 121.181C378.09 127.496 373.483 133.316 368.221 138.512C365.312 141.387 362.139 144.118 358.365 146.087C353.078 148.852 346.898 149.974 340.823 150.89C334.514 151.847 328.117 152.647 321.739 153.508C319.472 153.809 317.219 154.128 314.979 154.465C308.817 155.378 302.698 156.434 296.726 157.835C289.344 159.562 282.189 161.824 275.429 165.006C274.889 165.251 274.356 165.51 273.828 165.784C273.3 166.048 272.769 166.315 272.249 166.586C271.729 166.858 271.216 167.129 270.707 167.408C270.443 167.551 270.179 167.694 269.919 167.844C269.659 167.994 269.402 168.126 269.149 168.273C268.387 168.698 267.64 169.135 266.893 169.575L266.863 169.593C266.369 169.883 265.881 170.18 265.398 170.477C262.635 172.156 259.931 173.908 257.228 175.672L255.528 176.772L252.893 178.477C252.381 178.811 251.857 179.144 251.34 179.474C250.974 179.716 250.607 179.958 250.208 180.207C248.288 181.417 246.343 182.605 244.346 183.738C243.873 184.01 243.397 184.281 242.917 184.545C238.883 186.797 234.664 188.701 230.306 190.235L230.248 190.257C228.056 191.023 225.819 191.654 223.551 192.149C222.243 192.435 220.931 192.67 219.605 192.849C216.059 193.353 212.465 193.403 208.907 193C201.92 192.19 195.373 189.506 188.39 188.6C174.013 186.767 160.051 192.674 146.531 197.301C143.207 198.437 139.859 199.502 136.485 200.494C134.243 201.158 131.994 201.785 129.726 202.39C115.831 206.063 101.651 208.552 87.3364 209.829C81.3526 210.416 75.333 210.549 69.3291 210.229C67.0466 210.089 64.7897 209.862 62.5732 209.495C54.9892 208.322 47.9182 205.862 42.2101 201.356C37.5352 197.656 34.1902 192.835 31.6439 187.79C29.0373 182.642 27.197 177.14 26.1812 171.459C26.042 170.686 25.9174 169.908 25.8149 169.131C25.6317 167.801 25.4949 166.464 25.4045 165.12C24.9116 157.954 25.7666 150.759 27.9252 143.909C30.3432 136.239 34.3734 128.877 36.1466 121.148C36.2199 120.82 36.2895 120.494 36.3554 120.169C36.5976 118.995 36.7774 117.809 36.894 116.616C37.799 107.12 34.3294 97.862 31.6072 88.5748C31.512 88.2521 31.4167 87.9258 31.3251 87.5995C31.032 86.568 30.7511 85.5377 30.4825 84.5086C27.9618 74.6898 27.262 64.178 29.5079 54.3775C29.5775 54.0512 29.6618 53.7249 29.7424 53.4022C31.2459 47.2072 34.0733 41.4119 38.0298 36.4154C42.2357 31.1357 47.757 26.7396 53.6556 22.8788C56.5304 20.9966 59.5029 19.2379 62.5732 17.6027C64.7714 16.4294 67.0234 15.3185 69.3291 14.2699C87.8127 5.83695 108.897 1.71949 129.748 2.62877C130.847 2.67644 131.946 2.7351 133.045 2.81576C134.144 2.89643 135.346 2.99176 136.496 3.09808C149.928 4.40335 162.996 7.55286 175.973 10.9957C180.322 12.1506 184.664 13.3349 189.001 14.4972C190.932 15.0105 192.859 15.5238 194.79 16.0224C204.246 18.468 213.842 20.6825 223.558 22.3361C225.807 22.7248 228.059 23.0792 230.314 23.3994C238.141 24.5506 246.032 25.2204 253.941 25.405C257.016 25.4661 260.093 25.4392 263.17 25.3243C264.724 25.2681 266.278 25.1837 267.834 25.0713C283.9 23.9384 299.427 20.1472 314.979 16.6054C317.229 16.0921 319.482 15.5861 321.739 15.0875C324.699 14.4348 327.659 13.8042 330.634 13.2212C349.147 9.58042 365.649 11.674 382.861 19.1866C386.774 20.8915 390.683 22.9521 393.079 26.1529C395.475 29.3538 396.076 33.2842 396.523 37.079C397.157 42.4834 397.571 47.9575 397.728 53.4609C397.728 53.7835 397.728 54.1098 397.75 54.4362C398 65.5529 397.172 76.776 394.911 87.6325Z" fill="white"/>
<path opacity="0.1" d="M272.109 120.202H270.9V120.635V121.181H272.27L272.109 120.202ZM258.396 120.202C258.394 120.21 258.394 120.219 258.396 120.228C258.363 120.495 258.326 120.763 258.29 121.034V121.108V121.181H268.768V121.122L269.501 120.202H258.396ZM230.313 120.202V88.6079H242.367C242.239 88.5235 242.107 88.4355 241.971 88.3549L241.795 88.2412L241.568 88.1019C241.436 88.0249 241.305 87.9479 241.165 87.8746C241.026 87.8012 240.942 87.7499 240.825 87.6876L240.744 87.6436H240.726H230.313V85.902L230.031 86.012L229.734 86.1513H229.712L229.65 86.1843L229.463 86.2833L229.276 86.3823C229.093 86.4813 228.91 86.5913 228.727 86.705L228.551 86.8223L228.185 87.0569C227.712 87.3723 227.247 87.7022 226.767 88.0102C226.646 88.0872 226.525 88.1642 226.4 88.2339C226.14 88.3879 225.873 88.5345 225.598 88.6665C225.481 88.7252 225.367 88.7765 225.232 88.8242L225.034 88.9012L224.851 88.9635C224.421 89.1132 223.98 89.2285 223.532 89.3082V120.195H205.458C205.458 120.231 205.484 120.261 205.495 120.297C205.594 120.591 205.693 120.88 205.788 121.174H223.557V155.037C223.65 155.037 223.742 155.037 223.832 155.037L224.151 155.055L224.726 155.089L225.646 155.199L226.067 155.239L226.525 155.286H226.595L227.404 155.385L227.576 155.408L227.969 155.462L228.529 155.543L229.874 155.484L230.057 155.517C230.13 155.517 230.207 155.539 230.284 155.554V121.181H258.253V121.108V121.034C258.29 120.763 258.326 120.495 258.359 120.228C258.357 120.219 258.357 120.21 258.359 120.202H230.313ZM272.109 120.202H270.9V120.635V121.181H272.27L272.109 120.202ZM257.641 120.202C257.597 120.528 257.557 120.855 257.513 121.181H269.197L269.992 120.202H257.641ZM230.313 120.202V88.6079H242.367C242.239 88.5235 242.107 88.4355 241.971 88.3549L241.795 88.2412L241.568 88.1019C241.436 88.0249 241.305 87.9479 241.165 87.8746C241.026 87.8012 240.942 87.7499 240.825 87.6876L240.744 87.6436H240.718H230.313V85.902L230.031 86.012L229.734 86.1513H229.712L229.65 86.1843L229.463 86.2833L229.276 86.3823C229.093 86.4813 228.91 86.5913 228.727 86.705L228.551 86.8223L228.185 87.0569C227.712 87.3723 227.247 87.7022 226.767 88.0102C226.646 88.0872 226.525 88.1642 226.4 88.2339C226.14 88.3879 225.873 88.5345 225.598 88.6665C225.481 88.7252 225.367 88.7765 225.232 88.8242L225.034 88.9012L224.851 88.9635C224.421 89.1132 223.98 89.2285 223.532 89.3082V120.195H205.458C205.458 120.231 205.484 120.261 205.495 120.297C205.594 120.587 205.697 120.88 205.792 121.174H223.557V155.034H223.832L224.151 155.052L224.726 155.085L225.646 155.199L226.067 155.239L226.525 155.286H226.595L227.404 155.385L227.576 155.408L227.969 155.462L228.529 155.543L229.874 155.484L230.057 155.517C230.13 155.517 230.207 155.539 230.284 155.554V121.181H257.52C257.564 120.855 257.604 120.528 257.648 120.202H230.313ZM321.738 54.4106H397.75C397.75 54.0843 397.75 53.758 397.728 53.4353H321.738V15.0766C319.481 15.5654 317.228 16.0714 314.979 16.5945V53.4353H232.31L232.101 53.2483L232.416 52.9697L263.166 25.3171C260.089 25.4344 257.012 25.4613 253.937 25.3977L230.31 46.6413V23.3995C228.053 23.0793 225.801 22.7249 223.554 22.3362V45.5707L189.008 14.4973C184.67 13.335 180.329 12.1507 175.98 10.9958L222.96 53.2483L222.751 53.4353H136.507V3.13117C135.356 3.02362 134.206 2.92952 133.056 2.84886C131.957 2.76819 130.857 2.70953 129.758 2.66187V53.4353H69.3285V14.3029C67.0472 15.3491 64.7953 16.4601 62.5726 17.6358V53.4353H29.7418C29.6612 53.758 29.5769 54.0843 29.5073 54.4106H62.5726V87.6326H31.3245C31.4161 87.9589 31.5114 88.2852 31.6067 88.6079H62.5726V120.202H36.3549C36.2889 120.527 36.2193 120.853 36.146 121.181H62.5726V209.517C64.7708 209.858 67.046 210.097 69.3285 210.251V121.181H129.747V202.404C132.015 201.799 134.265 201.173 136.507 200.509V121.181H223.557V192.146C225.826 191.651 228.062 191.019 230.255 190.254L230.313 190.232V121.181H314.979V154.465C317.226 154.135 319.479 153.819 321.738 153.516V121.181H381.941C382.139 120.855 382.333 120.528 382.527 120.202H321.738V88.6079H394.698C394.775 88.2852 394.841 87.9589 394.91 87.6326H321.738V54.4106ZM69.3285 54.4106H129.747V87.6326H69.3285V54.4106ZM69.3285 120.202V88.6079H129.747V120.202H69.3285ZM136.507 54.4106H223.557V87.6326H136.507V54.4106ZM136.507 120.202V88.6079H223.557V120.202H136.507ZM314.979 120.202H230.313V88.6079H314.979V120.202ZM314.979 87.6326H230.313V55.3015L231.5 54.4106H314.979V87.6326ZM258.396 120.202C258.394 120.21 258.394 120.219 258.396 120.228C258.363 120.495 258.326 120.763 258.29 121.034V121.108V121.181H268.768V121.122L269.501 120.202H258.396ZM272.109 120.202H270.9V120.635V121.181H272.27L272.109 120.202ZM230.313 120.202V88.6079H242.367C242.239 88.5235 242.107 88.4355 241.971 88.3549L241.795 88.2412L241.568 88.1019C241.436 88.0249 241.305 87.9479 241.165 87.8746C241.026 87.8012 240.942 87.7499 240.825 87.6876L240.744 87.6436H240.726H230.313V85.902L230.031 86.012L229.734 86.1513H229.712L229.65 86.1843L229.463 86.2833L229.276 86.3823C229.093 86.4813 228.91 86.5913 228.727 86.705L228.551 86.8223L228.185 87.0569C227.712 87.3723 227.247 87.7022 226.767 88.0102C226.646 88.0872 226.525 88.1642 226.4 88.2339C226.14 88.3879 225.873 88.5345 225.598 88.6665C225.481 88.7252 225.367 88.7765 225.232 88.8242L225.034 88.9012L224.851 88.9635C224.421 89.1132 223.98 89.2285 223.532 89.3082V120.195H205.458C205.458 120.231 205.484 120.261 205.495 120.297C205.594 120.591 205.693 120.88 205.788 121.174H223.557V155.037C223.65 155.037 223.742 155.037 223.832 155.037L224.151 155.055L224.726 155.089L225.646 155.199L226.067 155.239L226.525 155.286H226.595L227.404 155.385L227.576 155.408L227.969 155.462L228.529 155.543L229.874 155.484L230.057 155.517C230.13 155.517 230.207 155.539 230.284 155.554V121.181H258.253V121.108V121.034C258.29 120.763 258.326 120.495 258.359 120.228C258.357 120.219 258.357 120.21 258.359 120.202H230.313Z" fill="white"/>
<path opacity="0.1" d="M98.3789 31.5391H98.9028C98.7301 31.466 98.5799 31.3484 98.4673 31.1984C98.3546 31.0484 98.2837 30.8712 98.2617 30.6848C98.2617 30.0102 99.2692 29.4602 100.5 29.4602H116.166C117.397 29.4602 118.401 30.0102 118.401 30.6848C118.401 31.3558 117.397 31.9094 116.166 31.9094H115.642C115.815 31.9813 115.966 32.098 116.079 32.2475C116.191 32.397 116.262 32.574 116.284 32.76C116.284 33.3357 115.551 33.8197 114.573 33.948H119.083C120.31 33.948 121.318 34.4979 121.318 35.1726C121.318 35.8472 120.31 36.3972 119.083 36.3972H103.413C102.186 36.3972 101.178 35.8435 101.178 35.1726C101.178 34.5969 101.911 34.1166 102.889 33.9846H98.3789C97.1479 33.9846 96.144 33.4347 96.144 32.76C96.144 32.0854 97.1479 31.5391 98.3789 31.5391Z" fill="white"/>
<path opacity="0.1" d="M268.171 43.1874H268.695C268.523 43.1138 268.374 42.996 268.262 42.846C268.15 42.696 268.08 42.5191 268.058 42.3331C268.058 41.6585 269.062 41.1085 270.293 41.1085H285.959C287.19 41.1085 288.197 41.6585 288.197 42.3331C288.197 43.0041 287.19 43.5541 285.959 43.5541H285.439C285.611 43.6277 285.76 43.7455 285.872 43.8955C285.984 44.0455 286.054 44.2224 286.076 44.4084C286.076 44.984 285.343 45.468 284.365 45.5963H288.875C290.106 45.5963 291.11 46.1463 291.11 46.8209C291.11 47.4955 290.106 48.0455 288.875 48.0455H273.209C271.978 48.0455 270.971 47.4919 270.971 46.8209C270.971 46.2453 271.703 45.7613 272.681 45.633H268.171C266.944 45.633 265.937 45.083 265.937 44.4084C265.937 43.7337 266.944 43.1874 268.171 43.1874Z" fill="white"/>
<path opacity="0.1" d="M74.3342 93.037H74.8545C74.6823 92.9637 74.5325 92.846 74.4206 92.696C74.3086 92.5459 74.2383 92.3688 74.217 92.1827C74.217 91.5118 75.2245 90.9581 76.4519 90.9581H92.1217C93.349 90.9581 94.3566 91.5118 94.3566 92.1827C94.3566 92.8574 93.349 93.4073 92.1217 93.4073H91.5978C91.7702 93.4794 91.9202 93.5962 92.0322 93.7458C92.1443 93.8953 92.2144 94.0722 92.2353 94.258C92.2353 94.8336 91.5025 95.3176 90.5243 95.4459H95.0344C96.2654 95.4459 97.2729 95.9995 97.2729 96.6705C97.2729 97.3415 96.2654 97.8951 95.0344 97.8951H79.3829C78.1519 97.8951 77.148 97.3451 77.148 96.6705C77.148 96.0985 77.8807 95.6146 78.859 95.4826H74.3342C73.1032 95.4826 72.0957 94.9326 72.0957 94.258C72.0957 93.5833 73.1179 93.037 74.3342 93.037Z" fill="white"/>
<path opacity="0.1" d="M369.32 223.693C371.952 210.806 339.731 193.332 297.352 184.665C254.973 175.998 218.484 179.419 215.853 192.307C213.221 205.195 245.442 222.668 287.821 231.335C330.2 240.003 366.689 236.581 369.32 223.693Z" fill="white"/>
<path d="M283.738 141.116C283.738 141.116 287.904 120.653 303.808 122.548C303.808 122.548 314.8 123.304 317.06 130.505V146.421L283.738 141.116Z" fill="#3A3768"/>
<path d="M370.836 148.698L229.207 136.947L211.031 140.738L212.167 166.128L213.405 166.279L214.816 204.406L353.793 229.415L368.565 216.909V175.577L370.455 174.466L370.836 148.698Z" fill="#D48A9B"/>
<path opacity="0.05" d="M371.027 148.698L370.646 174.466L355.309 181.667L355.119 154.758L371.027 148.698Z" fill="black"/>
<path opacity="0.05" d="M368.565 175.602L368.752 216.154L353.983 228.66L354.932 181.667L368.565 175.602Z" fill="black"/>
<path opacity="0.05" d="M213.596 167.797L355.046 185.069L355.119 181.792L213.49 166.506L213.596 167.797Z" fill="black"/>
<path opacity="0.05" d="M368.565 177.091V175.602L354.551 181.791V185.077L368.565 177.091Z" fill="black"/>
<path d="M210.841 140.738L229.017 136.947L370.646 148.698L354.742 154.759L210.841 140.738Z" fill="#EFC6CD"/>
<path opacity="0.1" d="M355.559 149.427L362.509 149.882L350.99 153.332L345.125 152.911L355.559 149.427Z" fill="black"/>
<path d="M355.559 149.123L362.509 149.578L350.99 153.032L345.125 152.606L355.559 149.123Z" fill="white"/>
<path d="M354.727 149.904C355.002 149.787 355.291 150.01 355.584 150.065C355.753 150.098 355.925 150.065 356.094 150.098C356.434 150.142 356.771 150.37 357.097 150.256" fill="#D3DAE1"/>
<path d="M354.368 150.113C354.639 149.996 354.932 150.216 355.225 150.274C355.394 150.304 355.566 150.274 355.735 150.304C356.075 150.351 356.412 150.579 356.739 150.465" fill="#D3DAE1"/>
<path d="M353.54 150.531C353.814 150.414 354.107 150.634 354.401 150.689C354.565 150.722 354.741 150.689 354.906 150.722C355.251 150.769 355.588 150.997 355.91 150.879" fill="#D3DAE1"/>
<path opacity="0.1" d="M325.516 146.003L332.467 146.461L320.948 149.911L315.082 149.486L325.516 146.003Z" fill="black"/>
<path d="M325.516 145.702L332.467 146.157L320.948 149.607L315.082 149.185L325.516 145.702Z" fill="white"/>
<path d="M324.685 146.483C324.959 146.366 325.249 146.586 325.542 146.645C325.71 146.674 325.883 146.645 326.051 146.674C326.392 146.722 326.729 146.949 327.055 146.835" fill="#D3DAE1"/>
<path d="M324.325 146.692C324.596 146.575 324.889 146.795 325.182 146.85C325.351 146.883 325.523 146.85 325.692 146.883C326.032 146.931 326.37 147.158 326.696 147.041" fill="#D3DAE1"/>
<path d="M323.497 147.107C323.772 146.989 324.065 147.213 324.358 147.268C324.523 147.301 324.699 147.268 324.864 147.301C325.208 147.345 325.545 147.576 325.868 147.459" fill="#D3DAE1"/>
<path opacity="0.1" d="M339.926 147.715L346.879 148.17L335.361 151.624L329.491 151.198L339.926 147.715Z" fill="black"/>
<path d="M339.926 147.415L346.879 147.869L335.361 151.319L329.491 150.894L339.926 147.415Z" fill="white"/>
<path d="M339.094 148.195C339.369 148.078 339.662 148.298 339.955 148.353C340.12 148.386 340.292 148.353 340.461 148.386C340.802 148.43 341.142 148.661 341.465 148.544" fill="#D3DAE1"/>
<path d="M338.734 148.401C339.009 148.284 339.302 148.507 339.595 148.562C339.76 148.595 339.932 148.562 340.101 148.595C340.442 148.639 340.782 148.87 341.105 148.753" fill="#D3DAE1"/>
<path d="M337.91 148.819C338.181 148.702 338.474 148.921 338.768 148.98C338.936 149.009 339.108 148.98 339.277 149.009C339.618 149.057 339.955 149.284 340.281 149.171" fill="#D3DAE1"/>
<path opacity="0.1" d="M182.572 290.158C223.542 290.158 256.755 283.316 256.755 274.876C256.755 266.436 223.542 259.594 182.572 259.594C141.601 259.594 108.388 266.436 108.388 274.876C108.388 283.316 141.601 290.158 182.572 290.158Z" fill="white"/>
<path d="M263.807 149.732C263.016 142.773 259.884 136.133 259.884 136.133L260.122 133.786C260.122 133.786 260.173 132.613 260.096 130.853C260.104 129.754 260.248 128.661 260.525 127.597C261.166 125.562 259.722 123.062 259.561 122.831C259.4 122.6 259.642 118.138 258.198 115.949C256.755 113.76 247.141 109.69 247.141 109.69C247.141 109.69 246.624 108.608 245.895 107.344L245.961 107.215C245.365 106.132 244.625 105.135 243.763 104.249C243.173 103.618 242.605 103.259 242.147 103.435C241.961 102.827 241.819 102.205 241.722 101.576C241.818 101.602 241.917 101.628 242.012 101.646C242.409 101.738 242.82 101.748 243.221 101.675C244.115 101.474 244.708 100.671 245.207 99.9153C247.691 96.1388 249.83 91.9957 250.266 87.5262C250.383 86.614 250.34 85.6883 250.138 84.791C249.932 84.0935 249.644 83.4227 249.281 82.7928C248.639 81.5003 247.825 80.3003 246.863 79.2253C245.152 77.4214 242.792 76.3178 240.367 75.6652C237.634 74.9298 234.788 74.7171 231.977 75.0382C231.244 75.1225 230.511 75.2435 229.779 75.2912C228.849 75.3321 227.918 75.3162 226.99 75.2435L222.195 74.9649L222.173 74.8915L221.374 74.8439C221.059 75.4708 221.374 76.2151 221.766 76.8018C222.158 77.3884 222.609 78.0007 222.576 78.6937C222.543 79.3866 222.041 79.9439 221.649 80.5269C221.257 81.1099 220.96 81.8725 221.352 82.4445C221.407 82.5236 221.472 82.5951 221.546 82.6571C221.96 83.0861 222.682 83.1338 223.308 83.1264H223.418C221.841 85.206 220.987 87.7457 220.989 90.3567C221 92.588 221.624 94.7734 222.793 96.6734C223.962 98.5734 225.631 100.115 227.617 101.129C227.687 101.367 227.756 101.613 227.822 101.862C228.548 104.438 228.809 107.122 228.592 109.789L228.507 109.972L228.456 109.778C228.456 109.778 222.806 113.613 221.129 114.629C219.451 115.644 217.765 119.087 217.685 120.026C217.604 120.965 214.959 135.121 214.959 135.121C214.421 136.547 213.978 138.007 213.632 139.491L210.258 142.457C210.258 142.457 203.297 143.084 201.282 142.615L201.341 143.004C199.564 142.598 197.754 142.352 195.933 142.27C194.939 142.143 193.928 142.278 193.002 142.663L192.932 142.696L192.877 142.721C191.817 142.867 190.781 143.158 189.8 143.587C189.683 143.634 189.576 143.682 189.474 143.73L189.496 143.249L181.963 142.861L178.116 142.08C178.116 142.08 176.753 140.98 175.951 141.141C175.149 141.303 173.467 140.203 173.467 140.203C173.083 139.902 172.668 139.644 172.229 139.433C172.1 138.545 172.02 138.006 172.02 138.006C172.02 138.006 169.026 126.12 166.784 119.131C165.282 114.464 163.12 112.165 161.846 111.164C161.278 110.174 160.904 109.536 160.904 109.536C160.658 108.678 159.31 106.746 158.966 106.698C158.911 106.61 158.871 106.566 158.849 106.566C158.775 106.558 158.7 106.57 158.632 106.599C158.002 103.461 157.636 99.5266 158.599 96.0985C159.918 95.0136 160.982 93.6504 161.712 92.1063C162.443 90.5622 162.824 88.8755 162.827 87.1669C162.827 87.1156 162.827 87.0642 162.827 87.0129C162.827 86.9616 162.827 86.9066 162.827 86.8553C162.827 84.1304 161.862 81.4938 160.105 79.4123L159.981 79.273C160.014 79.2493 160.046 79.2236 160.076 79.196C160.351 78.9725 160.561 78.6787 160.683 78.3456C160.805 78.0125 160.834 77.6526 160.768 77.3041C160.604 76.6001 160.054 76.0465 159.772 75.3792C159.602 74.8655 159.467 74.3413 159.365 73.8099C159.149 73.0552 158.753 72.3644 158.211 71.797L158.266 71.9437C156.83 70.3267 154.36 69.5238 152.137 69.8831C150.484 70.1471 148.945 70.9171 147.286 71.1554C146.095 71.324 144.882 71.214 143.684 71.335C142.573 71.4494 141.491 71.7624 140.49 72.259C140.228 72.3703 139.996 72.541 139.812 72.7576C139.641 73.0478 139.527 73.3674 139.475 73.6999C139.068 75.1848 137.778 76.2445 136.844 77.4837C135.777 78.8996 135.159 80.6035 135.071 82.3748C135.034 82.825 135.078 83.2781 135.199 83.7131C135.28 83.9734 135.404 84.2191 135.463 84.483C135.646 85.2897 135.225 86.0926 135.02 86.8919C134.761 87.9116 134.853 88.9885 135.28 89.9498C136.727 93.1909 141.479 94.2725 142.468 97.675C143.225 98.0232 144.024 98.2698 144.846 98.4083C144.912 98.7456 144.97 99.0866 145.018 99.4313C144.996 99.4407 144.975 99.453 144.956 99.4679C143.673 100.718 143.355 103.134 143.355 103.134L143.201 103.259C142.677 103.692 140.885 105.144 139.266 106.262C137.342 107.593 134.137 112.051 131.894 113.382C129.652 114.713 127.806 122.915 128.289 125.896C128.773 128.877 130.773 137.236 129.971 140.287C129.169 143.337 131.173 157.259 131.173 157.259C132.518 157.515 133.833 157.906 135.1 158.425L135.06 159.034L134.939 160.867C134.939 160.867 131.308 174.008 132.697 184.123C134.085 194.239 132.056 195.28 132.056 195.28C132.056 195.28 132.481 199.765 131.414 201.33C130.348 202.896 130.132 206.335 130.132 206.335C130.132 206.335 130.026 214.053 130.238 216.234C130.451 218.416 130.557 222.39 129.81 223.329C129.062 224.268 127.674 230.416 127.78 232.294C127.886 234.171 125.109 238.45 126.604 243.975C128.099 249.5 122.208 249.607 122.208 249.607C122.208 249.607 122.959 258.04 124.56 260.452L124.794 260.797C124.754 260.936 124.714 261.083 124.67 261.24C124.065 263.44 123.237 266.913 123.812 267.752C124.666 269.006 125.095 268.793 125.095 268.793L125.413 274.425C125.413 274.425 131.825 279.848 136.742 279.643C141.658 279.437 140.695 274.425 140.695 274.425L136.507 263.558L136.364 263.191L141.017 254.391C141.017 254.391 142.299 250.534 142.618 249.178C142.937 247.821 144.677 243.014 144.677 243.014C144.677 243.014 149.074 232.587 149.165 231.333C149.257 230.079 149.594 223.307 150.448 221.947C151.301 220.587 153.653 212.781 153.653 212.781L153.712 212.832C154.111 213.224 154.396 213.718 154.537 214.259C154.677 214.801 154.668 215.371 154.511 215.908C153.972 217.888 154.295 221.954 154.295 221.954C154.295 221.954 154.082 225.397 153.653 227.172C153.225 228.946 153.122 243.44 153.87 246.879C154.467 249.632 154.448 254.787 154.419 256.738C153.917 258.81 153.478 261.383 154.295 261.688C155.687 262.212 162.739 262.106 162.739 262.106C162.739 262.106 165.729 261.061 169.792 264.713C173.855 268.364 186.352 263.671 186.352 263.671C186.352 263.671 190.199 262.626 182.612 259.605C177.317 257.497 173.899 256.093 171.664 254.589C171.716 254.49 171.771 254.391 171.818 254.285C171.818 254.285 168.719 251.352 171.283 246.153C173.848 240.954 173.742 236.558 173.742 236.558L174.17 219.036L172.888 195.775L171.895 171.364L172.071 171.305C172.24 175.793 173.115 186.477 177.699 184.406C183.469 181.799 178.552 175.019 178.552 175.019L175.962 169.967L176.735 169.703L173.837 160.332C173.559 158.503 173.522 156.645 173.727 154.806C173.784 153.73 173.762 152.652 173.661 151.58C177.457 150.916 181.091 150.212 181.743 150.373C182.513 150.56 186.818 150.597 188.51 150.604C187.957 151.037 187.514 151.466 187.514 151.466L194.405 156.108C194.405 156.108 196.743 154.828 197.23 153.472C197.709 153.35 198.152 153.114 198.52 152.782C198.593 154.385 199.018 156.119 200.498 156.159C200.868 156.167 201.236 156.094 201.575 155.946L212.845 153.714L211.878 159.76L212.552 160.959C212.211 166.059 211.819 171.474 211.475 176.237L211.317 177.278L211.398 177.296C210.863 184.629 210.434 190.184 210.434 190.184C211.065 188.98 212.045 187.995 213.244 187.357L213.317 198.239C213.317 198.239 213.882 215.446 213.882 217.793C213.882 220.139 213.959 225.379 213.959 225.379C213.959 225.379 215.164 231.791 215.882 233.903C216.6 236.015 217.164 245.636 217.164 245.636C217.164 245.636 218.85 248.294 218.128 249.302C217.406 250.311 220.934 252.507 220.934 252.507C220.934 252.507 218.688 255.557 218.527 257.592C218.509 257.827 218.74 258.076 219.157 258.326C219.026 258.432 218.89 258.538 218.74 258.641C217.699 259.338 216.175 259.822 213.882 259.624C207.628 259.074 203.22 264.863 207.067 266.036C210.914 267.209 222.455 267.444 222.455 267.444C222.455 267.444 225.95 265.263 228.683 266.245C228.643 268.54 228.756 270.645 228.775 270.924L228.742 270.949C227.108 272.416 223.979 274.938 220.923 275.969C216.527 277.454 215.552 283.478 221.242 284.259C226.932 285.04 235.267 283.32 235.267 283.32C235.267 283.32 239.594 280.116 242.88 279.412C246.167 278.708 248.973 277.142 248.412 275.265C248.046 274.066 247.104 270.924 246.467 268.812C246.43 268.685 246.394 268.562 246.357 268.445C246.456 268.225 246.555 267.998 246.646 267.763C246.646 267.763 244.965 259.004 246.328 256.815C247.691 254.626 246.969 232.723 246.969 232.723C246.969 232.723 244.642 227.172 245.848 223.809C247.053 220.447 243.924 215.673 243.924 215.673C243.924 215.673 244.265 206.108 245.181 200.777C245.222 200.549 245.263 200.329 245.302 200.117C246.835 199.661 248.33 199.084 249.772 198.39C249.772 198.39 250.574 186.342 251.054 183.606C251.102 183.35 251.168 182.935 251.248 182.396L251.614 180.464L252.047 178.264L253.512 170.766L256.158 167.342L262.972 160.376C262.972 160.376 264.61 156.694 263.807 149.732ZM158.717 106.713L158.665 106.75C158.658 106.723 158.651 106.696 158.647 106.669C158.668 106.686 158.692 106.701 158.717 106.713ZM226.045 115.252L225.781 115.828L226.745 114.867L225.437 116.334L225.877 115.41L226.045 115.252ZM219.538 128.708C219.286 129.379 219.015 130.105 218.732 130.86L219.249 129.317L219.538 128.708Z" fill="url(#paint0_linear)"/>
<path d="M198.512 150.645C198.512 150.645 197.615 156.625 200.308 156.702C203 156.779 204.799 152.089 204.799 152.089L203.7 148.339L198.512 150.645Z" fill="#585B8A"/>
<path opacity="0.2" d="M198.512 150.645C198.512 150.645 197.615 156.625 200.308 156.702C203 156.779 204.799 152.089 204.799 152.089L203.7 148.339L198.512 150.645Z" fill="black"/>
<path d="M138.196 280.086C133.404 280.295 127.153 274.876 127.153 274.876L126.842 269.248C126.842 269.248 126.428 269.457 125.593 268.207C125.032 267.367 125.838 263.888 126.428 261.699C126.714 260.628 126.948 259.866 126.948 259.866L137.463 262.681L137.965 264.012L142.047 274.872C142.047 274.872 142.984 279.877 138.196 280.086Z" fill="#636992"/>
<path d="M186.51 264.144C186.51 264.144 174.328 268.834 170.39 265.186C166.451 261.537 163.517 262.579 163.517 262.579C163.517 262.579 156.643 262.685 155.288 262.161C154.489 261.856 154.921 259.25 155.42 257.174C155.757 255.741 156.123 254.557 156.123 254.557C156.123 254.557 168.096 250.49 169.972 252.991C170.536 253.726 171.209 254.369 171.969 254.897C174.138 256.467 177.527 257.889 182.887 260.078C190.258 263.099 186.51 264.144 186.51 264.144Z" fill="#636992"/>
<path d="M175.577 168.893L178.908 175.562C178.908 175.562 183.7 182.338 178.076 184.941C172.452 187.544 172.558 169.938 172.558 169.938L175.577 168.893Z" fill="#FFD6D6"/>
<path d="M161.622 111.058C161.622 111.058 165.267 112.726 167.455 119.707C169.642 126.688 172.558 138.571 172.558 138.571C172.558 138.571 174.537 152.012 174.222 155.349C174.021 157.186 174.057 159.042 174.328 160.871L177.138 170.249L171.514 172.229L162.871 139.092L161.622 111.058Z" fill="#DCE6F2"/>
<path opacity="0.05" d="M161.622 111.058C161.622 111.058 165.267 112.726 167.455 119.707C169.642 126.688 172.558 138.571 172.558 138.571C172.558 138.571 174.537 152.012 174.222 155.349C174.021 157.186 174.057 159.042 174.328 160.871L177.138 170.249L171.514 172.229L162.871 139.092L161.622 111.058Z" fill="black"/>
<path opacity="0.1" d="M137.464 262.685L137.966 264.016L137.35 265.193C134.954 266.234 129.019 265.402 129.019 265.402C129.019 265.402 127.92 264.005 126.417 261.706C126.703 260.636 126.938 259.873 126.938 259.873L137.464 262.685Z" fill="black"/>
<path opacity="0.1" d="M172.35 255.389C169.313 262.274 158.988 259.719 156.119 258.857C155.647 258.714 155.387 258.619 155.387 258.619C155.387 258.619 155.405 258.058 155.412 257.174C155.749 255.741 156.116 254.557 156.116 254.557C156.116 254.557 168.089 250.49 169.965 252.991C170.528 253.726 171.202 254.369 171.961 254.897C172.076 255.072 172.206 255.237 172.35 255.389Z" fill="black"/>
<path d="M171.826 246.637C169.327 251.843 172.35 254.765 172.35 254.765C169.313 261.647 158.988 259.096 156.12 258.23C155.647 258.091 155.387 257.996 155.387 257.996C155.387 257.996 155.596 250.802 154.867 247.363C154.137 243.924 154.24 229.441 154.658 227.67C155.075 225.899 155.281 222.456 155.281 222.456C155.281 222.456 154.969 218.394 155.489 216.414C155.646 215.879 155.656 215.312 155.52 214.772C155.383 214.231 155.105 213.738 154.713 213.342L154.658 213.287C154.658 213.287 152.368 221.103 151.533 222.453C150.697 223.802 150.389 230.581 150.283 231.832C150.177 233.082 145.909 243.506 145.909 243.506C145.909 243.506 144.245 248.298 143.934 249.651C143.623 251.004 142.37 254.864 142.37 254.864L137.35 264.559C134.954 265.6 129.019 264.768 129.019 264.768C129.019 264.768 127.876 263.301 126.311 260.91C124.747 258.52 124.021 250.076 124.021 250.076C124.021 250.076 129.748 249.97 128.29 244.448C126.832 238.926 129.539 234.651 129.436 232.774C129.334 230.897 130.686 224.752 131.415 223.813C132.144 222.874 132.038 218.915 131.829 216.726C131.62 214.537 131.726 206.826 131.726 206.826C131.726 206.826 131.935 203.387 132.976 201.825C134.016 200.263 133.602 195.779 133.602 195.779C133.602 195.779 135.577 194.738 134.225 184.629C132.873 174.521 136.423 161.391 136.423 161.391L136.544 159.558L136.735 156.588C136.735 156.588 166.517 154.711 168.913 157.002C169.54 157.638 170.054 158.376 170.434 159.184C171.254 160.948 171.833 162.813 172.156 164.731L173.405 196.307L174.654 219.545L174.237 237.053C174.237 237.053 174.328 241.423 171.826 246.637Z" fill="#565988"/>
<path opacity="0.1" d="M162.996 184.318L159.871 252.052L156.119 258.227C155.647 258.087 155.387 257.992 155.387 257.992C155.387 257.992 155.596 250.798 154.866 247.359C154.137 243.92 154.24 229.437 154.658 227.667C155.075 225.896 155.28 222.453 155.28 222.453C155.28 222.453 154.969 218.39 155.489 216.41C155.646 215.876 155.656 215.308 155.52 214.768C155.383 214.228 155.104 213.734 154.713 213.338L154.764 212.971L162.996 184.318Z" fill="black"/>
<path opacity="0.1" d="M129.341 257.057C129.341 257.057 137.463 253.827 138.713 254.857C139.962 255.887 129.136 257.46 129.136 257.46L129.341 257.057Z" fill="black"/>
<path opacity="0.1" d="M169.433 248.51C169.122 248.617 161.208 251.444 161.937 254.45C162.666 257.457 169.433 248.51 169.433 248.51Z" fill="black"/>
<path d="M144.703 94.3348C144.703 94.3348 147.356 100.744 145.952 104.029C144.549 107.314 161.102 112.938 161.102 112.938C161.102 112.938 156.262 100.432 160.948 93.3961C165.634 86.3602 144.703 94.3348 144.703 94.3348Z" fill="#FFD6D6"/>
<path d="M241.624 279.877C238.422 280.581 234.205 283.786 234.205 283.786C234.205 283.786 226.082 285.505 220.535 284.724C214.988 283.943 215.93 277.923 220.224 276.438C223.203 275.411 226.254 272.878 227.848 271.426C228.552 270.777 228.969 270.326 228.969 270.326L244.515 267.198C244.515 267.198 244.767 268.067 245.119 269.266C245.742 271.382 246.661 274.52 247.013 275.716C247.559 277.611 244.826 279.173 241.624 279.877Z" fill="#505484"/>
<path d="M237.641 267.84C237.641 267.84 231.079 268.544 228.346 266.982C225.613 265.42 221.708 267.921 221.708 267.921C221.708 267.921 210.46 267.686 206.712 266.513C202.964 265.34 207.258 259.547 213.351 260.104C215.571 260.306 217.073 259.818 218.088 259.121C219.148 258.394 219.887 257.286 220.15 256.027L233.34 256.808L235.172 261.486L237.641 267.84Z" fill="#505484"/>
<path opacity="0.1" d="M235.373 263.62C235.373 263.62 220.044 261.112 218.088 259.121C219.148 258.394 219.887 257.286 220.151 256.027L233.34 256.808L235.172 261.486L235.373 263.62Z" fill="black"/>
<path d="M212.647 175.852L212.805 198.749C212.805 198.749 213.351 215.945 213.351 218.291C213.351 220.638 213.428 225.87 213.428 225.87C213.428 225.87 214.6 232.279 215.304 234.391C216.007 236.503 216.553 246.124 216.553 246.124C216.553 246.124 218.194 248.782 217.491 249.79C216.787 250.798 220.224 252.995 220.224 252.995C220.224 252.995 218.026 256.045 217.883 258.076C217.74 260.108 235.374 262.993 235.374 262.993L228.504 192.498L223.034 174.836L212.647 175.852Z" fill="#575988"/>
<path opacity="0.1" d="M212.647 175.852L212.805 198.749C212.805 198.749 213.351 215.945 213.351 218.291C213.351 220.638 213.428 225.87 213.428 225.87C213.428 225.87 214.6 232.279 215.304 234.391C216.007 236.503 216.553 246.124 216.553 246.124C216.553 246.124 218.194 248.782 217.491 249.79C216.787 250.798 220.224 252.995 220.224 252.995C220.224 252.995 218.026 256.045 217.883 258.076C217.74 260.108 235.374 262.993 235.374 262.993L228.504 192.498L223.034 174.836L212.647 175.852Z" fill="black"/>
<path opacity="0.1" d="M245.119 269.285C240.015 281.461 227.877 272.064 227.877 272.064C227.877 272.064 227.877 271.829 227.848 271.426C228.552 270.777 228.969 270.326 228.969 270.326L244.514 267.198C244.514 267.198 244.767 268.086 245.119 269.285Z" fill="black"/>
<path d="M245.295 268.232C240.294 281.065 227.877 271.437 227.877 271.437C227.877 271.437 227.485 264.793 228.269 261.746C229.053 258.7 227.408 249.552 227.408 249.552C227.408 249.552 226.47 241.423 225.613 239.55C224.756 237.676 224.833 233.922 224.833 233.61C224.833 233.298 225.144 230.794 224.441 229.074C223.737 227.355 223.341 223.135 223.341 223.135C223.341 223.135 223.341 217.195 222.638 213.679L220.216 201.58L215.842 176.801L217.208 176.567L241.693 172.27C241.693 172.27 246.302 195.735 244.738 198.14C244.401 198.668 244.104 199.823 243.858 201.312C242.964 206.636 242.631 216.194 242.631 216.194C242.631 216.194 245.676 220.961 244.507 224.323C243.338 227.685 245.606 233.232 245.606 233.232C245.606 233.232 246.309 255.117 244.98 257.306C243.65 259.495 245.295 268.232 245.295 268.232Z" fill="#575988"/>
<path d="M242.95 108.246C242.95 108.246 220.77 123.876 225.767 116.059C228.46 111.85 227.965 106.489 226.91 102.441C226.377 100.383 225.64 98.382 224.712 96.4688C224.712 96.4688 243.558 88.4465 241.06 95.6365C240.474 97.3115 240.225 99.0859 240.327 100.858C240.476 103.521 241.387 106.085 242.95 108.246Z" fill="#D28690"/>
<path d="M203.015 144.041C203.015 144.041 193.643 141.332 192.082 143.99C190.522 146.648 192.551 152.482 195.38 153.42C198.208 154.359 204.7 150.241 204.7 150.241L203.015 144.041Z" fill="#D28690"/>
<path d="M213.743 139.433L209.837 143.029C209.837 143.029 203.041 143.653 201.088 143.183C201.088 143.183 202.887 155.22 200.308 156.705L216.084 153.501L213.743 139.433Z" fill="#585B8A"/>
<path opacity="0.1" d="M213.743 139.433L209.837 143.029C209.837 143.029 203.041 143.653 201.088 143.183C201.088 143.183 202.887 155.22 200.308 156.705L216.084 153.501L213.743 139.433Z" fill="black"/>
<path opacity="0.1" d="M163.601 87.7682C163.601 90.8799 162.365 93.8642 160.167 96.0645C157.968 98.2648 154.986 99.501 151.877 99.501C145.861 96.6081 140.153 94.2542 140.153 87.7682C140.09 86.1896 140.347 84.6147 140.908 83.1379C141.468 81.6611 142.321 80.3128 143.415 79.1738C144.509 78.0349 145.822 77.1287 147.274 76.5098C148.727 75.8908 150.289 75.5718 151.868 75.5718C153.446 75.5718 155.009 75.8908 156.461 76.5098C157.913 77.1287 159.226 78.0349 160.32 79.1738C161.414 80.3128 162.267 81.6611 162.827 83.1379C163.388 84.6147 163.645 86.1896 163.582 87.7682H163.601Z" fill="black"/>
<path d="M163.601 87.4528C163.603 90.2121 162.631 92.8834 160.856 94.9956C159.082 97.1078 156.62 98.5252 153.903 98.9979C151.187 99.4706 148.391 98.9682 146.009 97.5793C143.626 96.1904 141.81 94.0042 140.881 91.4063C139.952 88.8084 139.969 85.9656 140.93 83.3793C141.891 80.7929 143.734 78.6292 146.133 77.2697C148.532 75.9101 151.334 75.4421 154.045 75.9481C156.755 76.4542 159.2 77.9017 160.948 80.0356C162.66 82.1281 163.597 84.7484 163.601 87.4528Z" fill="#FFD6D6"/>
<path opacity="0.1" d="M170.434 159.195C169.274 159.916 168.06 160.546 166.803 161.08C166.803 161.08 160.868 160.218 160.011 161.234C159.153 162.249 151.584 162.641 151.584 162.641C151.584 162.641 140.025 162.095 138.307 160.61C137.775 160.18 137.184 159.829 136.552 159.569L136.742 156.599C136.742 156.599 166.525 154.722 168.921 157.013C169.545 157.65 170.056 158.388 170.434 159.195Z" fill="black"/>
<path d="M171.881 157.094C171.646 158.421 166.803 160.453 166.803 160.453C166.803 160.453 160.867 159.595 160.01 160.61C159.153 161.626 151.583 162.018 151.583 162.018C151.583 162.018 140.024 161.468 138.306 159.983C136.588 158.498 132.759 157.783 132.759 157.783C132.759 157.783 130.806 143.873 131.59 140.826C132.374 137.779 130.418 129.412 129.949 126.442C129.48 123.472 131.275 115.267 133.463 113.94C135.65 112.612 138.775 108.154 140.647 106.827C142.226 105.708 143.97 104.26 144.479 103.824L144.63 103.699C144.63 103.699 144.945 101.276 146.194 100.033C147.443 98.7897 158.922 107.927 158.922 107.927C158.922 107.927 159.003 108.63 159.783 107.303C159.959 107.006 161.472 109.191 161.736 110.115C161.736 110.115 167.982 121.06 168.374 123.315C168.766 125.57 170.404 132.928 170.716 134.725C170.796 135.187 170.928 136.807 171.082 138.978C171.111 139.403 171.137 139.854 171.17 140.324C171.401 143.924 171.65 148.522 171.8 151.998C171.8 152.394 171.833 152.775 171.844 153.142C171.923 154.458 171.935 155.777 171.881 157.094Z" fill="#DCE6F2"/>
<path opacity="0.1" d="M132.221 128.877C132.221 128.877 136.515 134.113 137.921 134.113C139.328 134.113 132.221 128.877 132.221 128.877Z" fill="black"/>
<path opacity="0.1" d="M141.266 140.133C141.266 140.133 134.236 147.792 135.174 149.2C136.111 150.608 141.266 140.133 141.266 140.133Z" fill="black"/>
<path opacity="0.1" d="M136.112 155.375C136.112 155.375 144.172 146.542 144.538 143.495L136.112 155.375Z" fill="black"/>
<path opacity="0.1" d="M146.264 155.998C146.264 155.998 155.559 151.074 156.339 147.165C157.119 143.257 146.264 155.998 146.264 155.998Z" fill="black"/>
<path opacity="0.1" d="M158.057 108.48L156.768 111.604L158.915 112.62L161.025 118.523C161.025 118.523 166.843 130.167 166.608 136.224C166.374 142.282 167.664 151.385 167.664 151.385L171.02 150.762L169.437 132.947C169.19 130.188 168.5 127.488 167.392 124.95C164.711 118.805 159.721 107.461 159.405 107.461C158.977 107.461 159.277 107.619 159.277 107.619L158.057 108.48Z" fill="black"/>
<path d="M158.369 108.165L157.079 111.292L159.23 112.308L161.336 118.211C161.336 118.211 167.154 129.856 166.92 135.913C166.685 141.97 167.975 151.074 167.975 151.074L171.335 150.45L169.748 132.635C169.505 129.877 168.816 127.176 167.708 124.638C165.026 118.49 160.036 107.149 159.724 107.149C159.292 107.149 159.592 107.307 159.592 107.307L158.369 108.165Z" fill="#575989"/>
<path d="M196.402 154.099C194.768 153.974 190.848 151.99 189.291 151.165L188.631 150.799L188.712 144.745C189.097 144.519 189.496 144.317 189.906 144.14C191.987 143.231 196.256 141.996 198.395 145.974C201.282 151.308 198.472 154.238 196.402 154.099Z" fill="#FFD6D6"/>
<path opacity="0.1" d="M160.948 80.0357C160.78 80.141 160.595 80.2166 160.402 80.2594C159.043 80.5564 157.497 79.3868 156.332 80.1384C155.621 80.6004 155.456 81.5573 155.361 82.4006C155.195 83.8672 155.029 85.324 154.862 86.7711C154.828 87.2862 154.719 87.7937 154.54 88.278C153.965 89.5943 152.386 90.2139 150.946 90.1919C150.382 90.2321 149.825 90.0476 149.396 89.6786C149.143 89.4219 149.008 89.0626 148.729 88.828C146.897 87.2917 146.341 91.0572 146.824 92.1278C147.601 93.8767 150.36 95.5633 149.202 97.7852C149.007 98.1463 148.712 98.443 148.352 98.6395C146.607 98.0927 145.015 97.1451 143.701 95.8725C142.388 94.5999 141.39 93.0375 140.787 91.3102C140.184 89.5828 139.994 87.7384 140.23 85.9242C140.467 84.11 141.124 82.3763 142.15 80.8616C143.176 79.347 144.541 78.0933 146.137 77.2009C147.733 76.3084 149.515 75.8017 151.342 75.7215C153.168 75.6412 154.988 75.9896 156.656 76.7387C158.324 77.4878 159.794 78.6169 160.948 80.0357Z" fill="black"/>
<path d="M148.418 88.8132C148.693 89.0442 148.832 89.4035 149.085 89.6602C149.514 90.0288 150.071 90.2133 150.635 90.1735C152.075 90.1955 153.654 89.5795 154.225 88.2559C154.408 87.7737 154.517 87.2671 154.551 86.7527L155.05 82.3822C155.145 81.539 155.306 80.582 156.021 80.12C157.186 79.3867 158.732 80.538 160.091 80.241C160.581 80.1164 161.005 79.8098 161.277 79.3835C161.549 78.9571 161.649 78.4431 161.556 77.9458C161.399 77.2455 160.864 76.6919 160.589 76.0246C160.423 75.5118 160.289 74.9889 160.19 74.459C159.431 71.6138 156.094 70.0152 153.192 70.4919C151.58 70.7595 150.082 71.5295 148.466 71.7641C147.308 71.9328 146.125 71.8228 144.956 71.9474C143.87 72.0596 142.814 72.3716 141.842 72.8677C141.587 72.9808 141.361 73.1515 141.182 73.3664C141.016 73.6566 140.905 73.9747 140.853 74.305C140.461 75.7716 139.2 76.8532 138.288 78.0888C137.245 79.5105 136.641 81.2072 136.551 82.9689C136.515 83.4188 136.558 83.8716 136.676 84.3071C136.753 84.5638 136.874 84.8131 136.932 85.0771C137.112 85.8801 136.702 86.683 136.5 87.4823C136.25 88.5023 136.34 89.5762 136.757 90.5402C138.163 93.7777 142.798 94.8593 143.762 98.2581C144.617 98.6687 145.541 98.9173 146.487 98.9914C147.433 99.0097 148.451 98.6027 148.891 97.7631C150.045 95.5632 147.29 93.8547 146.513 92.1094C146.026 91.0351 146.572 87.2733 148.418 88.8132Z" fill="#353045"/>
<path opacity="0.1" d="M241.078 95.6365C240.492 97.3116 240.243 99.0859 240.345 100.858C239.781 101.338 239.165 99.9006 238.513 100.271C236.725 101.305 234.659 103.765 232.446 103.765C230.527 103.766 228.635 103.313 226.925 102.441C226.391 100.383 225.655 98.382 224.727 96.4688C224.727 96.4688 243.576 88.4465 241.078 95.6365Z" fill="black"/>
<path d="M244.617 90.947C244.617 93.3589 243.903 95.7167 242.564 97.7221C241.225 99.7275 239.322 101.291 237.095 102.213C234.868 103.136 232.418 103.378 230.054 102.907C227.691 102.437 225.519 101.275 223.815 99.57C222.111 97.8646 220.95 95.6917 220.48 93.3261C220.01 90.9606 220.251 88.5086 221.174 86.2803C222.096 84.052 223.658 82.1475 225.662 80.8075C227.666 79.4675 230.022 78.7523 232.432 78.7523C234.032 78.7518 235.617 79.0669 237.095 79.6796C238.574 80.2923 239.918 81.1905 241.049 82.323C242.181 83.4555 243.078 84.8 243.691 86.2798C244.303 87.7595 244.618 89.3455 244.617 90.947Z" fill="#D28690"/>
<path d="M244.097 110.955C244.097 110.955 241.803 113.456 241.492 113.661C241.18 113.866 234.531 141.893 234.413 142.219C234.296 142.545 226.496 167.852 226.496 167.852L213.999 174L215.043 143.048L224.203 117.522C224.203 117.522 227.225 114.083 228.159 112.832C229.094 111.582 240.759 104.077 240.759 104.077L242.752 108.187L244.097 110.955Z" fill="#F0F3F7"/>
<path opacity="0.1" d="M242.444 108.814L228.075 119.109L227.844 113.456C228.782 112.205 240.444 104.704 240.444 104.704L242.444 108.814Z" fill="black"/>
<path d="M242.756 108.187L228.387 118.482L228.164 112.832C229.101 111.578 240.763 104.077 240.763 104.077L242.756 108.187Z" fill="#F0F3F7"/>
<path d="M227.683 110.317L228.163 112.832L224.95 116.099L227.514 110.354C227.514 110.354 222.019 114.185 220.37 115.201C218.721 116.217 217.073 119.656 217.01 120.594C216.948 121.533 214.354 135.678 214.354 135.678C214.354 135.678 212.401 140.914 212.951 142.399C213.501 143.884 209.983 190.701 209.983 190.701C210.454 189.792 211.118 188.997 211.93 188.375C212.742 187.752 213.681 187.315 214.68 187.097L213.427 159.43C213.427 159.43 214.951 141.024 215.028 140.789C215.105 140.555 218.582 129.885 218.582 129.885L227.683 110.317Z" fill="#585B8A"/>
<path opacity="0.1" d="M228.478 113.144L228.229 118.277C228.229 118.277 224.752 129.258 223.583 131.055C222.414 132.851 218.857 143.561 218.857 143.561L216.853 162.165L213.416 163.73L211.724 160.61L214.537 142.645C214.537 142.645 219.846 127.484 220.63 125.918L224.547 117.661L228.478 113.144Z" fill="black"/>
<path d="M228.163 112.832L227.918 117.965C227.918 117.965 224.441 128.947 223.268 130.743C222.096 132.54 218.546 143.25 218.546 143.25L216.553 161.85L213.116 163.412L211.398 160.288L214.212 142.322C214.212 142.322 219.52 127.157 220.301 125.595L224.247 117.349L228.163 112.832Z" fill="#663D5C"/>
<path d="M187.657 152.012L194.372 156.665C194.372 156.665 199.11 154.007 196.351 152.287C193.592 150.568 191.145 150.307 190.258 150.307C189.371 150.307 187.657 152.012 187.657 152.012Z" fill="#D28690"/>
<path d="M192.672 143.411C192.522 143.504 192.399 143.634 192.314 143.789C192.228 143.944 192.184 144.118 192.185 144.294C192.185 145.721 192.346 149.497 193.541 147.792C195.006 145.706 194.739 143.832 196.977 145.185C198.369 146.052 199.586 147.172 200.568 148.485L199.945 144.005C199.945 144.005 195.343 141.731 192.672 143.411Z" fill="#D28690"/>
<path opacity="0.1" d="M244.745 198.126C244.408 198.654 244.112 199.809 243.866 201.297C230.171 205.407 220.151 196.718 220.151 196.718C218.938 192.606 217.948 188.433 217.183 184.215C216.938 182.77 216.993 179.969 217.22 176.552L241.704 172.255C241.704 172.255 246.31 195.702 244.745 198.126Z" fill="black"/>
<path d="M258.803 128.173C258.18 130.208 258.414 134.347 258.414 134.347L252.791 160.922C252.791 160.922 250.057 181.399 249.589 184.134C249.12 186.87 248.339 198.907 248.339 198.907C232.406 206.724 220.128 196.095 220.128 196.095C218.916 191.982 217.926 187.807 217.161 183.588C216.377 178.946 218.685 160.35 219.777 152.089C220.103 149.644 220.323 148.104 220.323 148.104L224.422 132.862C224.422 132.862 229.46 120.004 231.336 116.253C233.212 112.502 240.744 104.077 240.744 104.077C241.679 103.483 243.173 105.58 244.283 107.49C245.122 108.935 245.749 110.277 245.749 110.277C245.749 110.277 255.121 114.339 256.524 116.51C257.927 118.68 257.696 123.154 257.854 123.388C258.011 123.623 259.429 126.142 258.803 128.173Z" fill="#585B8A"/>
<path opacity="0.1" d="M236.703 118.717C236.703 118.717 237.406 122.86 235.604 124.11C233.864 125.32 220.909 150.813 220.103 152.405C220.429 149.956 220.648 148.416 220.648 148.416L224.748 133.178C224.748 133.178 229.789 120.319 231.662 116.565C233.534 112.81 241.074 104.388 241.074 104.388C242.008 103.794 243.499 105.892 244.609 107.802C242.935 111.281 239.443 117.859 236.703 118.717Z" fill="black"/>
<path d="M236.391 118.405C236.391 118.405 237.091 122.549 235.292 123.799C233.493 125.049 220.601 150.498 219.784 152.089C220.11 149.644 220.33 148.104 220.33 148.104L224.429 132.862C224.429 132.862 229.467 120.004 231.343 116.253C233.219 112.502 240.751 104.077 240.751 104.077C241.686 103.483 243.18 105.58 244.29 107.49C242.623 110.966 239.128 117.547 236.391 118.405Z" fill="#585B8A"/>
<path d="M254.979 155.844L250.571 178.792V178.796L250.15 180.992V180.996L249.201 185.935L245.152 185.077L243.266 184.677L217.154 179.141L215.234 178.734L210.853 177.806L211.71 172.108L212.065 169.74L215.227 148.731L254.979 155.844Z" fill="white"/>
<path d="M230.61 174.602C230.61 174.602 220.224 178.352 222.488 182.807C224.752 187.262 239.279 179.368 239.279 179.368L230.61 174.602Z" fill="#D28690"/>
<path opacity="0.1" d="M238.029 206.566C238.029 206.878 238.421 210.867 239.982 212.271C241.543 213.675 238.029 206.566 238.029 206.566Z" fill="black"/>
<path opacity="0.1" d="M227.566 220.711C227.566 220.711 229.439 225.87 236.858 227.982C244.277 230.094 227.566 220.711 227.566 220.711Z" fill="black"/>
<path opacity="0.1" d="M244.617 90.947C244.618 93.0907 244.053 95.1967 242.981 97.0526C241.909 98.9084 240.366 100.448 238.51 101.517C237.81 101.126 237.189 100.607 236.678 99.9886C236.146 99.3433 235.732 98.4633 236.051 97.6933C236.308 97.0737 236.985 96.6814 237.15 96.0397C237.228 95.6474 237.208 95.2419 237.092 94.8591C236.956 94.2542 236.828 93.6492 236.696 93.0479C236.582 92.5346 236.381 91.9296 235.872 91.805C235.362 91.6803 234.937 92.1056 234.538 92.4209C233.56 93.1946 231.684 93.7189 230.508 93.0846C229.332 92.4503 229.662 90.3274 229.471 89.1798C229.469 89.0801 229.445 88.9821 229.4 88.8928C229.356 88.8034 229.293 88.7249 229.215 88.6628C229.043 88.6059 228.861 88.5933 228.683 88.6261C228.05 88.6261 227.54 88.0578 227.357 87.4492C227.227 86.8278 227.156 86.1956 227.145 85.5609C227.075 84.9266 226.844 84.2557 226.302 83.9293C225.869 83.7275 225.388 83.6489 224.913 83.702L222.616 83.7277C224.14 81.6659 226.275 80.1373 228.717 79.3594C231.159 78.5815 233.783 78.5937 236.218 79.3945C238.652 80.1952 240.773 81.7437 242.277 83.8196C243.782 85.8956 244.594 88.3935 244.599 90.958L244.617 90.947Z" fill="black"/>
<path d="M234.864 92.421C235.263 92.1057 235.703 91.6877 236.197 91.8087C236.692 91.9297 236.904 92.542 237.018 93.048L237.414 94.8556C237.531 95.2393 237.552 95.6459 237.476 96.0399C237.289 96.6852 236.615 97.0738 236.355 97.6934C236.036 98.4634 236.454 99.3434 236.981 99.985C237.944 101.146 239.274 101.941 240.751 102.24C241.137 102.333 241.538 102.341 241.927 102.266C242.799 102.064 243.393 101.261 243.862 100.509C246.284 96.7328 248.368 92.5934 248.793 88.1276C248.91 87.2167 248.868 86.2925 248.669 85.3961C248.47 84.6993 248.19 84.0285 247.833 83.3978C247.21 82.1093 246.418 80.9096 245.478 79.8303C243.811 78.0338 241.51 76.9301 239.147 76.2775C236.489 75.5394 233.713 75.3216 230.973 75.6359C230.24 75.7202 229.537 75.8412 228.815 75.8889C227.909 75.931 227.001 75.9163 226.096 75.8449L220.703 75.5222C220.396 76.1492 220.703 76.8935 221.07 77.4801C221.436 78.0668 221.89 78.6754 221.861 79.372C221.832 80.0687 221.337 80.6186 220.956 81.2053C220.575 81.7919 220.286 82.5509 220.667 83.1228C221.048 83.6948 221.825 83.7315 222.499 83.7241L225.217 83.6948C225.691 83.6461 226.168 83.7285 226.598 83.9331C227.141 84.2594 227.371 84.9341 227.441 85.5647C227.456 86.1992 227.527 86.831 227.654 87.453C227.84 88.0616 228.346 88.6372 228.98 88.6299C229.157 88.5945 229.341 88.6084 229.511 88.6702C229.589 88.7316 229.652 88.8095 229.697 88.8982C229.741 88.9869 229.765 89.0844 229.768 89.1835C229.958 90.3311 229.606 92.4504 230.804 93.0883C232.002 93.7263 233.886 93.1947 234.864 92.421Z" fill="#663D5C"/>
<path opacity="0.1" d="M250.351 116.506C249.004 116.363 247.648 116.682 246.506 117.412C245.365 118.141 244.505 119.238 244.068 120.521C242.602 124.697 240.158 132.232 240.77 135.209C241.631 139.429 242.646 146.465 242.646 146.465C242.646 146.465 247.097 149.031 244.844 151.62C242.591 154.209 241.954 157.875 241.954 157.875C241.954 157.875 239.063 159.125 238.44 161.783C237.817 164.442 233.597 168.112 233.597 168.112L227.273 174.444C227.273 174.444 237.737 185.077 239.847 185.619L246.328 178.037L253.982 167.877L260.62 160.911C260.62 160.911 262.181 157.244 261.401 150.278C260.62 143.312 257.572 136.679 257.572 136.679L257.807 134.333C257.807 134.333 258.525 117.522 250.351 116.506Z" fill="black"/>
<path d="M250.974 116.506C249.628 116.365 248.274 116.685 247.134 117.414C245.993 118.144 245.134 119.239 244.698 120.521C243.232 124.697 240.788 132.232 241.4 135.209C242.258 139.429 243.272 146.465 243.272 146.465C243.272 146.465 247.724 149.031 245.471 151.62C243.217 154.209 242.584 157.875 242.584 157.875C242.584 157.875 239.693 159.125 239.066 161.783C238.44 164.442 234.227 168.112 234.227 168.112L227.899 174.444C227.899 174.444 238.363 185.077 240.473 185.619L246.954 178.037L254.59 167.877L261.228 160.911C261.228 160.911 262.793 157.244 262.009 150.278C261.225 143.312 258.184 136.679 258.184 136.679L258.418 134.333C258.418 134.333 259.147 117.522 250.974 116.506Z" fill="#585B8A"/>
<path opacity="0.1" d="M244.434 140.291C244.434 140.291 251.072 148.416 253.886 146.619C256.7 144.822 244.434 140.291 244.434 140.291Z" fill="black"/>
<path opacity="0.1" d="M246.932 134.036C247.636 134.27 253.417 142.322 256.385 141.369C259.352 140.415 246.932 134.036 246.932 134.036Z" fill="black"/>
<path opacity="0.1" d="M248.574 147.866C248.574 147.866 248.966 152.478 253.729 151.851C258.491 151.224 248.574 147.866 248.574 147.866Z" fill="black"/>
<path opacity="0.1" d="M227.526 110.666L224.95 116.411L228.167 113.144L227.526 110.666Z" fill="black"/>
<path d="M227.526 110.354L224.95 116.099L228.167 112.832L227.526 110.354Z" fill="#F0F3F7"/>
<path opacity="0.3" d="M217.154 179.141L215.234 178.734L211.709 172.108L212.065 169.74L217.154 179.141Z" fill="black"/>
<path opacity="0.3" d="M250.57 178.796L250.149 180.992V180.996L245.151 185.077L243.265 184.677L250.57 178.796Z" fill="black"/>
<path opacity="0.1" d="M171.834 153.156C170.866 153.318 169.928 153.464 169.071 153.574C164.308 154.201 152.98 148.573 152.98 148.573C152.98 148.573 139.157 137.005 135.174 126.065C131.192 115.124 139.937 113.481 139.937 113.481C143.234 111.604 150.404 116.84 151.419 117.701C152.434 118.563 153.295 120.748 153.214 122.156C153.134 123.564 155.559 125.361 155.559 125.361C155.559 125.361 159.699 132.551 160.714 133.332C161.729 134.113 161.963 134.817 162.275 136.147C162.586 137.478 165.319 138.571 166.492 138.49C167.664 138.41 169.056 138.883 169.056 139.506C169.056 140.008 170.203 140.258 171.145 140.338C171.423 144.346 171.698 149.596 171.834 153.156Z" fill="black"/>
<path opacity="0.1" d="M171.79 152.012C171.057 152.13 170.353 152.236 169.694 152.324C164.931 152.951 153.606 147.323 153.606 147.323C153.606 147.323 139.783 135.755 135.801 124.814C131.818 113.874 140.564 112.231 140.564 112.231C143.861 110.354 151.027 115.59 152.042 116.451C153.057 117.313 153.918 119.498 153.841 120.906C153.764 122.314 156.182 124.11 156.182 124.11C156.182 124.11 160.322 131.3 161.337 132.081C162.352 132.862 162.586 133.566 162.901 134.897C163.216 136.228 165.946 137.317 167.118 137.24C168.291 137.163 169.683 137.632 169.683 138.256C169.683 138.622 170.335 138.868 171.061 138.989C171.09 139.414 171.115 139.865 171.148 140.335C171.39 143.939 171.639 148.537 171.79 152.012Z" fill="black"/>
<path opacity="0.1" d="M189.906 144.14L189.61 151.165H189.291L188.631 150.799L188.712 144.745C189.097 144.519 189.496 144.317 189.906 144.14Z" fill="black"/>
<path d="M139.937 112.854C139.937 112.854 131.192 114.497 135.174 125.438C139.157 136.378 152.98 147.95 152.98 147.95C152.98 147.95 164.305 153.574 169.071 152.951C173.838 152.328 181.096 150.685 182.033 150.92C182.971 151.154 189.299 151.154 189.299 151.154L189.61 143.821L182.283 143.429L178.535 142.648C178.535 142.648 177.205 141.548 176.424 141.71C175.644 141.871 174.006 140.771 174.006 140.771C174.006 140.771 172.753 139.755 171.808 139.755C170.863 139.755 169.075 139.521 169.075 138.897C169.075 138.274 167.668 137.797 166.51 137.882C165.352 137.966 162.586 136.866 162.264 135.521C161.941 134.175 161.718 133.489 160.703 132.708C159.688 131.927 155.548 124.734 155.548 124.734C155.548 124.734 153.127 122.937 153.203 121.533C153.28 120.129 152.423 117.936 151.408 117.074C150.393 116.213 143.212 110.981 139.937 112.854Z" fill="#DCE6F2"/>
<path opacity="0.1" d="M162.432 138.021C162.432 138.021 159.073 141.383 159.93 142.007L162.432 138.021Z" fill="black"/>
<path opacity="0.1" d="M166.022 140.679C166.022 140.679 161.648 144.041 162.82 144.276C163.993 144.511 166.022 140.679 166.022 140.679Z" fill="black"/>
<path opacity="0.1" d="M158.6 145.666C159.226 145.981 168.517 151.532 172.035 151.451L158.6 145.666Z" fill="black"/>
<path opacity="0.1" d="M159.23 108.557C159.23 108.557 157.588 113.95 156.962 113.95C156.471 113.95 148.227 107.27 144.787 104.462L144.937 104.337C144.937 104.337 145.249 101.913 146.498 100.671C147.747 99.4276 159.23 108.557 159.23 108.557Z" fill="black"/>
<path d="M158.915 107.93C158.915 107.93 157.277 113.324 156.65 113.324C156.156 113.324 147.912 106.643 144.472 103.835L144.622 103.71C144.622 103.71 144.937 101.286 146.187 100.044C147.436 98.8006 158.915 107.93 158.915 107.93Z" fill="#DCE6F2"/>
<g opacity="0.15">
<path opacity="0.15" d="M136.797 90.4998C137.896 93.0113 140.922 94.2286 142.677 96.2305C141.633 93.7703 138.581 92.564 136.797 90.4998Z" fill="black"/>
<path opacity="0.15" d="M147.997 96.2855C147.561 97.1251 146.531 97.5321 145.593 97.5138C144.76 97.4539 143.943 97.2453 143.183 96.8978C143.458 97.3048 143.669 97.7527 143.805 98.2251C144.661 98.6364 145.585 98.8851 146.531 98.9583C147.48 98.9803 148.499 98.5734 148.935 97.7301C149.634 96.3918 148.905 95.2479 148.052 94.1663C148.211 94.4986 148.289 94.8641 148.279 95.2325C148.27 95.6009 148.173 95.9618 147.997 96.2855Z" fill="black"/>
<path opacity="0.15" d="M161.593 77.909C161.435 77.2051 160.901 76.6514 160.626 75.9878C160.458 75.4743 160.324 74.95 160.226 74.4185C160.018 73.667 159.633 72.9766 159.102 72.4056C159.175 72.5861 159.238 72.771 159.289 72.9593C159.391 73.4931 159.528 74.0197 159.699 74.5359C159.974 75.1995 160.509 75.7531 160.666 76.4571C160.759 76.9544 160.659 77.4684 160.387 77.8948C160.115 78.3211 159.691 78.6277 159.201 78.7523C157.845 79.0493 156.299 77.876 155.134 78.6313C154.419 79.0896 154.255 80.0466 154.159 80.8899C153.996 82.3565 153.83 83.8145 153.661 85.264C153.628 85.7782 153.519 86.2847 153.339 86.7672C152.763 88.0872 151.184 88.7068 149.744 88.6848C149.182 88.7224 148.627 88.5382 148.198 88.1715C147.99 87.8763 147.766 87.5924 147.528 87.3209C145.696 85.781 145.139 89.5464 145.623 90.6207C145.865 91.104 146.165 91.5559 146.517 91.9663C146.114 90.7564 146.678 87.2732 148.466 88.7655C148.704 89.0361 148.927 89.3201 149.133 89.6161C149.563 89.9823 150.119 90.1664 150.682 90.1294C152.122 90.1514 153.701 89.5318 154.277 88.2118C154.458 87.7282 154.566 87.2204 154.599 86.7049C154.765 85.2383 154.931 83.7815 155.097 82.3345C155.192 81.4912 155.357 80.5342 156.068 80.0759C157.237 79.3206 158.783 80.4939 160.139 80.1932C160.625 80.0671 161.045 79.7614 161.315 79.3375C161.585 78.9137 161.684 78.4033 161.593 77.909Z" fill="black"/>
</g>
<path opacity="0.1" d="M242.708 101.331C242.318 101.403 241.918 101.393 241.532 101.301C240.057 101.003 238.728 100.209 237.766 99.05C237.234 98.4047 236.817 97.5248 237.139 96.7548C237.396 96.1352 238.07 95.7465 238.238 95.1012C238.314 94.7073 238.293 94.3007 238.176 93.9169L237.78 92.1094C237.667 91.5961 237.469 90.9911 236.96 90.8701C236.45 90.7491 236.025 91.1671 235.626 91.4824C234.648 92.256 232.768 92.784 231.596 92.146C230.423 91.5081 230.749 89.3888 230.559 88.2412C230.556 88.1422 230.531 88.045 230.487 87.9564C230.443 87.8678 230.38 87.7899 230.303 87.7279C230.131 87.6681 229.946 87.6542 229.768 87.6876C229.134 87.6876 228.628 87.1193 228.441 86.5106C228.314 85.8889 228.244 85.2569 228.233 84.6224C228.159 83.9918 227.932 83.3171 227.386 82.9908C226.956 82.788 226.478 82.7057 226.005 82.7525L223.286 82.7818C222.616 82.7818 221.821 82.7378 221.455 82.1805C221.088 81.6232 221.359 80.8313 221.744 80.263C222.129 79.6946 222.616 79.13 222.649 78.4297C222.682 77.7294 222.228 77.1244 221.858 76.5378C221.645 76.217 221.489 75.8624 221.396 75.4892L220.616 75.4415C220.311 76.0648 220.616 76.8091 220.982 77.3994C221.348 77.9897 221.806 78.5947 221.773 79.2877C221.74 79.9806 221.253 80.5379 220.868 81.1209C220.484 81.7039 220.202 82.4665 220.583 83.0385C220.964 83.6105 221.737 83.6508 222.414 83.6434L225.133 83.6105C225.607 83.5646 226.084 83.6482 226.514 83.8524C227.06 84.1788 227.291 84.8534 227.361 85.484C227.372 86.1187 227.443 86.7509 227.573 87.3723C227.756 87.9772 228.265 88.5565 228.899 88.5455C229.077 88.5141 229.26 88.528 229.431 88.5859C229.508 88.6484 229.571 88.727 229.615 88.8162C229.66 88.9055 229.684 89.0032 229.687 89.1028C229.878 90.2468 229.526 92.3697 230.724 93.0077C231.922 93.6456 233.79 93.1176 234.754 92.344C235.153 92.0287 235.597 91.6107 236.091 91.7281C236.586 91.8454 236.798 92.4613 236.908 92.9673L237.308 94.7786C237.424 95.1626 237.444 95.5692 237.366 95.9628C237.183 96.6045 236.505 96.9968 236.249 97.6128C235.93 98.3827 236.344 99.2663 236.875 99.908C237.844 101.072 239.183 101.866 240.667 102.159C241.053 102.251 241.454 102.261 241.843 102.189C242.473 101.996 243.014 101.586 243.367 101.03C243.167 101.169 242.944 101.271 242.708 101.331Z" fill="black"/>
<path opacity="0.1" d="M74.6267 263.257C79.5174 263.257 83.482 262.648 83.482 261.897C83.482 261.145 79.5174 260.536 74.6267 260.536C69.7361 260.536 65.7715 261.145 65.7715 261.897C65.7715 262.648 69.7361 263.257 74.6267 263.257Z" fill="white"/>
<path opacity="0.1" d="M383.817 227.89C388.708 227.89 392.673 227.281 392.673 226.53C392.673 225.779 388.708 225.17 383.817 225.17C378.927 225.17 374.962 225.779 374.962 226.53C374.962 227.281 378.927 227.89 383.817 227.89Z" fill="white"/>
<path opacity="0.1" d="M293.539 285.282C307.703 285.282 319.185 283.519 319.185 281.344C319.185 279.169 307.703 277.406 293.539 277.406C279.375 277.406 267.893 279.169 267.893 281.344C267.893 283.519 279.375 285.282 293.539 285.282Z" fill="white"/>
<path opacity="0.1" d="M366.444 267.734C377.492 267.734 386.448 266.358 386.448 264.661C386.448 262.964 377.492 261.589 366.444 261.589C355.396 261.589 346.44 262.964 346.44 264.661C346.44 266.358 355.396 267.734 366.444 267.734Z" fill="white"/>
<path opacity="0.1" d="M31.7224 270.466C45.8863 270.466 57.3685 268.703 57.3685 266.529C57.3685 264.354 45.8863 262.591 31.7224 262.591C17.5584 262.591 6.07617 264.354 6.07617 266.529C6.07617 268.703 17.5584 270.466 31.7224 270.466Z" fill="white"/>
<path d="M75.0299 218.574C75.0299 218.574 76.0338 219.886 74.5683 221.873C73.1028 223.861 71.8938 225.54 72.37 226.765C72.37 226.765 74.5683 223.098 76.4002 223.032C78.232 222.966 77.012 220.788 75.0299 218.574Z" fill="white"/>
<path opacity="0.1" d="M75.0303 218.574C75.1198 218.699 75.189 218.837 75.2354 218.984C76.994 221.052 77.9283 222.977 76.2393 223.017C74.6676 223.061 72.7807 225.877 72.3301 226.589C72.3438 226.643 72.361 226.697 72.3814 226.75C72.3814 226.75 74.5796 223.083 76.4115 223.017C78.2434 222.951 77.0123 220.788 75.0303 218.574Z" fill="black"/>
<path d="M76.8985 220.246C76.8985 220.708 76.8436 221.082 76.7813 221.082C76.719 221.082 76.6641 220.715 76.6641 220.246C76.6641 219.776 76.73 220.004 76.7923 220.004C76.8546 220.004 76.8985 219.784 76.8985 220.246Z" fill="#FFD037"/>
<path d="M77.5358 220.799C77.1328 221.019 76.7774 221.166 76.7481 221.096C76.7188 221.026 77.0192 220.818 77.4259 220.594C77.8325 220.37 77.6713 220.535 77.7006 220.594C77.7299 220.653 77.9424 220.576 77.5358 220.799Z" fill="#FFD037"/>
<path d="M69.7317 218.574C69.7317 218.574 68.7278 219.886 70.1933 221.873C71.6588 223.861 72.8715 225.54 72.3915 226.765C72.3915 226.765 70.1933 223.098 68.3798 223.032C66.5662 222.966 67.7386 220.788 69.7317 218.574Z" fill="white"/>
<path opacity="0.1" d="M69.7318 218.574C69.6442 218.7 69.5752 218.838 69.5266 218.984C67.768 221.052 66.8338 222.977 68.5228 223.017C70.0945 223.061 71.9813 225.877 72.4357 226.589C72.4206 226.643 72.4023 226.697 72.3807 226.75C72.3807 226.75 70.1824 223.083 68.3689 223.017C66.5553 222.951 67.7387 220.788 69.7318 218.574Z" fill="black"/>
<path d="M67.8667 220.246C67.8667 220.708 67.918 221.082 67.9803 221.082C68.0426 221.082 68.0975 220.715 68.0975 220.246C68.0975 219.776 68.0316 220.004 67.9693 220.004C67.907 220.004 67.8667 219.784 67.8667 220.246Z" fill="#FFD037"/>
<path d="M67.2264 220.799C67.6331 221.019 67.9848 221.166 68.0177 221.096C68.0507 221.026 67.743 220.818 67.3363 220.594C66.9296 220.37 67.0908 220.535 67.0615 220.594C67.0322 220.653 66.8197 220.576 67.2264 220.799Z" fill="#FFD037"/>
<path opacity="0.1" d="M72.3804 236.803C78.1735 236.803 82.8697 236.083 82.8697 235.194C82.8697 234.305 78.1735 233.584 72.3804 233.584C66.5873 233.584 61.8911 234.305 61.8911 235.194C61.8911 236.083 66.5873 236.803 72.3804 236.803Z" fill="white"/>
<path d="M77.7814 224.99L77.7301 225.401L77.6605 225.98L77.6312 226.222L77.5616 226.801L77.5286 227.043L77.459 227.622L76.6566 234.222C76.587 234.809 75.6271 235.267 74.4584 235.267H70.3037C69.146 235.267 68.1861 234.809 68.1055 234.222L67.3031 227.622L67.2335 227.043L67.2042 226.801L67.1309 226.222L67.1016 225.98L67.032 225.401L66.9807 224.99C66.9404 224.656 67.4607 224.378 68.1165 224.378H76.6493C77.3015 224.378 77.8217 224.656 77.7814 224.99Z" fill="#65617D"/>
<path d="M77.7299 225.401L77.6602 225.98H67.1013L67.0317 225.401H77.7299Z" fill="#9D9CB5"/>
<path d="M77.6307 226.222L77.561 226.801H67.2036L67.1304 226.222H77.6307Z" fill="#9D9CB5"/>
<path d="M77.5322 227.043L77.4589 227.623H67.303L67.2334 227.043H77.5322Z" fill="#9D9CB5"/>
<path d="M376.838 213.495C376.838 213.495 375.585 219.333 381.157 220.022L381.502 219.373C381.502 219.373 377.182 215.307 376.838 213.495Z" fill="white"/>
<path d="M383.275 219.325L381.978 219.6L381.85 219.63C381.85 219.63 378.391 216.821 378.435 210.551C378.897 211.476 379.451 212.352 380.087 213.166C381.458 214.981 383.015 217.4 383.275 219.325Z" fill="white"/>
<path d="M383.711 219.927C383.609 219.993 383.493 220.036 383.373 220.051C383.252 220.067 383.13 220.056 383.014 220.018C379.688 219.241 380.816 208.392 380.816 208.392C380.999 208.476 381.183 209.858 381.967 211.64C383.304 214.768 384.78 219.142 383.711 219.927Z" fill="white"/>
<path d="M391.09 213.495C391.09 213.495 391.306 219.333 385.733 220.022L385.385 219.362C385.385 219.362 390.745 215.307 391.09 213.495Z" fill="white"/>
<path d="M389.492 210.562C389.536 216.832 385.044 219.641 385.044 219.641L384.912 219.611L383.619 219.336C383.876 217.411 385.451 214.991 386.803 213.177C387.579 212.189 388.483 211.31 389.492 210.562Z" fill="white"/>
<path d="M384.894 219.362C384.697 219.606 384.446 219.8 384.161 219.93C384.073 219.97 383.981 220.001 383.887 220.022C383.07 220.213 382.788 219.622 382.832 218.618C382.908 216.832 384.03 213.734 385.03 211.413C385.512 210.274 386.222 209.247 387.118 208.396C387.118 208.396 387.067 216.839 384.894 219.362Z" fill="white"/>
<path d="M383.963 204.586C383.963 204.586 380.248 217.785 383.447 219.758C386.645 221.73 384.784 205.752 383.963 204.586Z" fill="white"/>
<path opacity="0.1" d="M376.838 213.495C376.838 213.495 375.585 219.333 381.157 220.022L381.502 219.373C381.502 219.373 377.182 215.307 376.838 213.495Z" fill="black"/>
<path opacity="0.1" d="M383.275 219.325L381.978 219.6L381.85 219.63C381.85 219.63 378.391 216.821 378.435 210.551C378.897 211.476 379.451 212.352 380.087 213.166C381.458 214.981 383.015 217.4 383.275 219.325Z" fill="black"/>
<path opacity="0.1" d="M383.711 219.927C383.609 219.993 383.493 220.036 383.373 220.051C383.252 220.067 383.13 220.056 383.014 220.018C379.688 219.241 380.816 208.392 380.816 208.392C380.999 208.476 381.183 209.858 381.967 211.64C383.304 214.768 384.78 219.142 383.711 219.927Z" fill="black"/>
<path opacity="0.1" d="M391.09 213.495C391.09 213.495 391.306 219.333 385.733 220.022L385.385 219.362C385.385 219.362 390.745 215.307 391.09 213.495Z" fill="black"/>
<path opacity="0.1" d="M389.492 210.562C389.536 216.832 385.044 219.641 385.044 219.641L384.912 219.611L383.619 219.336C383.876 217.411 385.451 214.991 386.803 213.177C387.579 212.189 388.483 211.31 389.492 210.562Z" fill="black"/>
<path opacity="0.1" d="M384.894 219.362C384.697 219.606 384.446 219.8 384.161 219.93C384.073 219.97 383.981 220.001 383.887 220.022C383.07 220.213 382.788 219.622 382.832 218.618C382.908 216.832 384.03 213.734 385.03 211.413C385.512 210.274 386.222 209.247 387.118 208.396C387.118 208.396 387.067 216.839 384.894 219.362Z" fill="black"/>
<path opacity="0.1" d="M383.963 204.586C383.963 204.586 380.248 217.785 383.447 219.758C386.645 221.73 384.784 205.752 383.963 204.586Z" fill="black"/>
<path d="M376.838 213.495C376.838 213.495 376.105 219.333 381.674 220.022L382.019 219.373C382.019 219.373 377.182 215.307 376.838 213.495Z" fill="white"/>
<path d="M383.791 219.325L382.494 219.6L382.366 219.63C382.366 219.63 378.391 216.821 378.424 210.562C378.424 210.562 379.442 211.662 380.592 213.177C381.974 214.98 383.531 217.4 383.791 219.325Z" fill="white"/>
<path opacity="0.1" d="M383.792 219.325L382.495 219.6C381.267 218.522 380.78 215.706 380.604 213.166C381.974 214.981 383.531 217.4 383.792 219.325Z" fill="black"/>
<path d="M384.231 219.927C384.128 219.993 384.012 220.036 383.891 220.052C383.77 220.067 383.647 220.056 383.531 220.018C380.204 219.241 380.813 208.392 380.813 208.392C380.996 208.476 381.714 209.858 382.48 211.64C383.824 214.768 385.297 219.142 384.231 219.927Z" fill="white"/>
<path d="M391.089 213.495C391.089 213.495 391.822 219.333 386.253 220.022L385.909 219.373C385.909 219.373 390.745 215.307 391.089 213.495Z" fill="white"/>
<path d="M389.492 210.562C389.536 216.832 385.561 219.641 385.561 219.641L385.433 219.611L384.136 219.336C384.392 217.411 385.968 214.991 387.323 213.177C388.474 211.662 389.492 210.562 389.492 210.562Z" fill="white"/>
<path opacity="0.1" d="M387.323 213.166C387.155 215.534 386.722 218.141 385.671 219.358C385.599 219.446 385.519 219.527 385.433 219.6L384.136 219.325C384.392 217.4 385.953 214.981 387.323 213.166Z" fill="black"/>
<path d="M385.411 219.362C385.215 219.607 384.964 219.801 384.678 219.93C384.591 219.97 384.5 220 384.407 220.022C383.586 220.213 383.308 219.622 383.348 218.618C383.429 216.832 384.55 213.734 385.546 211.413C386.279 209.745 386.942 208.48 387.118 208.396C387.118 208.392 387.583 216.839 385.411 219.362Z" fill="white"/>
<path opacity="0.1" d="M384.231 219.926C384.041 219.929 383.856 219.869 383.703 219.758C382.139 218.783 382.106 215.123 382.48 211.64C383.824 214.768 385.297 219.142 384.231 219.926Z" fill="black"/>
<path opacity="0.1" d="M385.411 219.362C385.231 219.754 384.99 219.959 384.678 219.93C384.519 219.911 384.367 219.853 384.235 219.762C383.827 219.482 383.517 219.082 383.348 218.618C383.429 216.832 384.55 213.734 385.546 211.413C385.905 214.628 386.026 218.038 385.411 219.362Z" fill="black"/>
<path d="M383.964 204.586C383.964 204.586 380.769 217.785 383.964 219.758C387.159 221.73 384.785 205.752 383.964 204.586Z" fill="white"/>
<path d="M390.097 219.113H376.794V221.316H378.824L378.875 221.576L379.688 225.855H387.422L388.236 221.576L388.283 221.316H390.097V219.113Z" fill="#4B4770"/>
<path opacity="0.1" d="M390.097 219.113H376.794V221.316H378.824L378.875 221.576L379.688 225.855H387.422L388.236 221.576L388.283 221.316H390.097V219.113Z" fill="black"/>
<path d="M388.976 220.407L388.752 221.577L387.939 225.855H380.205L379.391 221.577L379.168 220.407H388.976Z" fill="#4B4770"/>
<path opacity="0.1" d="M388.976 220.407L388.752 221.577H379.391L379.168 220.407H388.976Z" fill="black"/>
<path d="M390.613 219.113H377.31V221.316H390.613V219.113Z" fill="#4B4770"/>
<path d="M46.0658 223.488C45.715 223.971 45.4339 224.502 45.2304 225.064C45.1791 225.2 45.1278 225.357 45.0765 225.508C44.9836 225.464 44.8867 225.43 44.7871 225.405C44.3601 225.297 43.9182 225.26 43.4792 225.295C43.4792 225.123 43.5011 224.929 43.5048 224.756C43.5598 222.824 43.3326 220.133 41.4897 221.273C39.7238 222.373 40.9841 224.206 42.1236 225.38C42.2225 225.482 42.3214 225.577 42.4167 225.669C41.3762 226.402 41.1783 228.137 41.0061 229.937C40.8339 231.737 39.3062 233.706 38.2913 234.824C38.1887 234.938 38.0971 235.041 38.0055 235.136C37.5953 234.808 37.1204 234.571 36.6121 234.441C36.1037 234.31 35.5735 234.288 35.0562 234.377C35.0159 234.219 34.9683 234.054 34.9207 233.882C34.1 230.916 32.3963 225.779 30.2237 224.654L30.5095 224.287C31.4328 223.081 32.4733 221.284 30.9382 220.826C29.4031 220.367 29.2638 222.38 29.3481 223.891C29.3628 224.082 29.3774 224.261 29.3921 224.43C29.0852 224.444 28.7844 224.521 28.5084 224.656C28.2324 224.791 27.987 224.981 27.7873 225.215L27.5492 224.932C26.3035 223.466 24.021 221.13 23.3286 222.894C22.6838 224.536 24.6951 226.67 26.1094 227.906L26.1973 227.983C25.2484 231.836 29.3921 234.978 31.6233 236.353L31.9127 236.529C28.8352 240.159 26.9337 246.964 26.9337 246.964L35.5508 248.504C35.5508 248.504 41.2663 243.569 40.5335 238.934H40.5921C46.3039 237.791 47.6009 231.697 46.7106 228.078L46.8132 228.038C47.8538 227.612 48.7655 226.922 49.4584 226.036C51.0558 223.818 47.7144 221.31 46.0658 223.488Z" fill="white"/>
<path opacity="0.1" d="M46.0658 223.488C45.715 223.971 45.4339 224.502 45.2304 225.064C45.1791 225.2 45.1278 225.357 45.0765 225.508C44.9836 225.464 44.8867 225.43 44.7871 225.405C44.3601 225.297 43.9182 225.26 43.4792 225.295C43.4792 225.123 43.5011 224.929 43.5048 224.756C43.5598 222.824 43.3326 220.133 41.4897 221.273C39.7238 222.373 40.9841 224.206 42.1236 225.38C42.2225 225.482 42.3214 225.577 42.4167 225.669C41.3762 226.402 41.1783 228.137 41.0061 229.937C40.8339 231.737 39.3062 233.706 38.2913 234.824C38.1887 234.938 38.0971 235.041 38.0055 235.136C37.5953 234.808 37.1204 234.571 36.6121 234.441C36.1037 234.31 35.5735 234.288 35.0562 234.377C35.0159 234.219 34.9683 234.054 34.9207 233.882C34.1 230.916 32.3963 225.779 30.2237 224.654L30.5095 224.287C31.4328 223.081 32.4733 221.284 30.9382 220.826C29.4031 220.367 29.2638 222.38 29.3481 223.891C29.3628 224.082 29.3774 224.261 29.3921 224.43C29.0852 224.444 28.7844 224.521 28.5084 224.656C28.2324 224.791 27.987 224.981 27.7873 225.215L27.5492 224.932C26.3035 223.466 24.021 221.13 23.3286 222.894C22.6838 224.536 24.6951 226.67 26.1094 227.906L26.1973 227.983C25.2484 231.836 29.3921 234.978 31.6233 236.353L31.9127 236.529C28.8352 240.159 26.9337 246.964 26.9337 246.964L35.5508 248.504C35.5508 248.504 41.2663 243.569 40.5335 238.934H40.5921C46.3039 237.791 47.6009 231.697 46.7106 228.078L46.8132 228.038C47.8538 227.612 48.7655 226.922 49.4584 226.036C51.0558 223.818 47.7144 221.31 46.0658 223.488Z" fill="black"/>
<path d="M28.9124 225.996L27.9048 228.929C27.9048 228.929 27.3443 228.533 26.6372 227.909C25.223 226.674 23.2116 224.54 23.8564 222.897C24.5489 221.134 26.8314 223.462 28.077 224.936C28.579 225.523 28.9124 225.996 28.9124 225.996Z" fill="white"/>
<path d="M31.0373 224.291C30.7313 224.694 30.4035 225.081 30.0554 225.449C29.9694 224.934 29.9095 224.416 29.8759 223.895C29.7916 222.384 29.9528 220.378 31.466 220.829C32.9791 221.28 31.9606 223.084 31.0373 224.291Z" fill="white"/>
<path d="M44.0512 224.756C44.0219 225.728 43.9266 226.505 43.9266 226.505C43.4834 226.158 43.0636 225.782 42.6699 225.38C41.5305 224.195 40.2702 222.369 42.0361 221.273C43.8607 220.129 44.0878 222.824 44.0512 224.756Z" fill="white"/>
<path d="M49.9865 226.029C49.2936 226.915 48.3819 227.605 47.3413 228.03C47.0524 228.156 46.7563 228.263 46.4546 228.353L45.2676 226.685C45.3922 226.134 45.5563 225.592 45.7585 225.064C45.962 224.502 46.2431 223.972 46.5939 223.488C48.2352 221.31 51.5839 223.818 49.9865 226.029Z" fill="white"/>
<path opacity="0.1" d="M28.0771 224.936C28.579 225.523 28.9124 225.977 28.9124 225.977L27.9049 228.91C27.9049 228.91 27.3443 228.514 26.6372 227.891C26.7943 226.946 27.1847 226.055 27.773 225.299C27.8719 225.178 27.9781 225.053 28.0771 224.936Z" fill="black"/>
<path opacity="0.1" d="M31.0374 224.291C30.7313 224.694 30.4036 225.081 30.0555 225.449C29.9695 224.934 29.9096 224.416 29.876 223.895C30.2947 223.903 30.7004 224.042 31.0374 224.291Z" fill="black"/>
<path d="M35.9905 236.009L33.4845 237.109C33.4845 237.109 32.9386 236.845 32.1509 236.353C29.5167 234.733 24.2226 230.652 27.7544 225.842C31.2863 221.031 34.2649 229.658 35.4483 233.878C35.8037 235.162 35.9905 236.009 35.9905 236.009Z" fill="white"/>
<path opacity="0.1" d="M42.6514 225.38C43.0159 225.004 43.5098 224.781 44.0326 224.756C44.0033 225.728 43.908 226.505 43.908 226.505C43.4649 226.158 43.0451 225.782 42.6514 225.38Z" fill="black"/>
<path opacity="0.1" d="M47.3481 228.03C47.0592 228.156 46.7632 228.263 46.4615 228.353L45.2744 226.685C45.3991 226.134 45.5631 225.592 45.7654 225.064C46.5237 225.512 47.088 226.626 47.3481 228.03Z" fill="black"/>
<path d="M41.12 238.927C40.9844 238.957 40.8415 238.982 40.6987 239.004C32.2977 240.28 37.9289 235.745 37.9289 235.745C37.9289 235.745 38.2952 235.378 38.8192 234.824C39.834 233.706 41.3581 231.748 41.534 229.937C41.7978 227.213 42.1019 224.657 45.315 225.405C48.4694 226.146 49.074 237.332 41.12 238.927Z" fill="white"/>
<path d="M40.9625 259.859H24.9116V264.083H40.9625V259.859Z" fill="#D4DFEC"/>
<path d="M43.3326 246.132H22.3613V260.871H43.3326V246.132Z" fill="#D4DFEC"/>
<path opacity="0.1" d="M40.9625 259.859H24.9116V264.083H40.9625V259.859Z" fill="black"/>
<path opacity="0.1" d="M43.3326 246.132H22.3613V260.871H43.3326V246.132Z" fill="black"/>
<path d="M42.0176 259.859H25.9668V264.083H42.0176V259.859Z" fill="#D4DFEC"/>
<path opacity="0.1" d="M35.4482 233.882C35.8146 235.143 35.9905 236.009 35.9905 236.009L33.4845 237.109C33.4845 237.109 32.9386 236.845 32.1509 236.353C33.1328 235.11 34.2392 234.172 35.4482 233.882Z" fill="black"/>
<path opacity="0.1" d="M41.12 238.927C40.9844 238.957 40.8415 238.982 40.6987 239.004C32.2977 240.28 37.9289 235.745 37.9289 235.745C37.9289 235.745 38.2952 235.378 38.8192 234.824C40.3872 236.082 41.0357 237.497 41.12 238.927Z" fill="black"/>
<path d="M27.4614 246.968C27.4614 246.968 32.1657 230.102 38.7641 235.305C45.3625 240.507 36.0785 248.504 36.0785 248.504L27.4614 246.968Z" fill="white"/>
<path opacity="0.1" d="M29.8357 229.013C30.1271 229.013 30.3633 228.777 30.3633 228.485C30.3633 228.193 30.1271 227.957 29.8357 227.957C29.5443 227.957 29.3081 228.193 29.3081 228.485C29.3081 228.777 29.5443 229.013 29.8357 229.013Z" fill="black"/>
<path opacity="0.1" d="M29.7917 231.477C30.0831 231.477 30.3193 231.241 30.3193 230.949C30.3193 230.657 30.0831 230.421 29.7917 230.421C29.5004 230.421 29.2642 230.657 29.2642 230.949C29.2642 231.241 29.5004 231.477 29.7917 231.477Z" fill="black"/>
<path opacity="0.1" d="M45.0955 229.497C45.3868 229.497 45.623 229.261 45.623 228.969C45.623 228.677 45.3868 228.441 45.0955 228.441C44.8041 228.441 44.5679 228.677 44.5679 228.969C44.5679 229.261 44.8041 229.497 45.0955 229.497Z" fill="black"/>
<path opacity="0.1" d="M32.7849 242.128C33.0763 242.128 33.3125 241.892 33.3125 241.6C33.3125 241.308 33.0763 241.072 32.7849 241.072C32.4935 241.072 32.2573 241.308 32.2573 241.6C32.2573 241.892 32.4935 242.128 32.7849 242.128Z" fill="black"/>
<path opacity="0.1" d="M43.9963 233.589C44.2877 233.589 44.5239 233.352 44.5239 233.061C44.5239 232.769 44.2877 232.533 43.9963 232.533C43.705 232.533 43.4688 232.769 43.4688 233.061C43.4688 233.352 43.705 233.589 43.9963 233.589Z" fill="black"/>
<path opacity="0.1" d="M38.5442 239.048C38.8356 239.048 39.0718 238.812 39.0718 238.52C39.0718 238.229 38.8356 237.992 38.5442 237.992C38.2528 237.992 38.0166 238.229 38.0166 238.52C38.0166 238.812 38.2528 239.048 38.5442 239.048Z" fill="black"/>
<path opacity="0.1" d="M31.6379 230.069C31.9293 230.069 32.1655 229.833 32.1655 229.541C32.1655 229.249 31.9293 229.013 31.6379 229.013C31.3466 229.013 31.1104 229.249 31.1104 229.541C31.1104 229.833 31.3466 230.069 31.6379 230.069Z" fill="black"/>
<path opacity="0.1" d="M43.6443 231.081C43.9357 231.081 44.1719 230.845 44.1719 230.553C44.1719 230.261 43.9357 230.025 43.6443 230.025C43.3529 230.025 43.1167 230.261 43.1167 230.553C43.1167 230.845 43.3529 231.081 43.6443 231.081Z" fill="black"/>
<path opacity="0.1" d="M41.842 235.173C42.1334 235.173 42.3696 234.936 42.3696 234.645C42.3696 234.353 42.1334 234.117 41.842 234.117C41.5507 234.117 41.3145 234.353 41.3145 234.645C41.3145 234.936 41.5507 235.173 41.842 235.173Z" fill="black"/>
<path opacity="0.1" d="M36.3025 241.732C36.5939 241.732 36.8301 241.496 36.8301 241.204C36.8301 240.912 36.5939 240.676 36.3025 240.676C36.0111 240.676 35.7749 240.912 35.7749 241.204C35.7749 241.496 36.0111 241.732 36.3025 241.732Z" fill="black"/>
<path opacity="0.1" d="M35.1589 239.136C35.4503 239.136 35.6865 238.9 35.6865 238.608C35.6865 238.317 35.4503 238.08 35.1589 238.08C34.8676 238.08 34.6313 238.317 34.6313 238.608C34.6313 238.9 34.8676 239.136 35.1589 239.136Z" fill="black"/>
<path opacity="0.1" d="M32.4294 233.281C32.7208 233.281 32.957 233.044 32.957 232.753C32.957 232.461 32.7208 232.225 32.4294 232.225C32.1381 232.225 31.9019 232.461 31.9019 232.753C31.9019 233.044 32.1381 233.281 32.4294 233.281Z" fill="black"/>
<path opacity="0.1" d="M42.0176 259.859H25.9668V261.403H42.0176V259.859Z" fill="black"/>
<path d="M44.3877 246.132H23.4165V260.871H44.3877V246.132Z" fill="#D4DFEC"/>
<path opacity="0.1" d="M37.0056 244.108C37.297 244.108 37.5332 243.872 37.5332 243.58C37.5332 243.288 37.297 243.052 37.0056 243.052C36.7142 243.052 36.478 243.288 36.478 243.58C36.478 243.872 36.7142 244.108 37.0056 244.108Z" fill="black"/>
<path opacity="0.1" d="M33.8401 244.768C34.1314 244.768 34.3677 244.532 34.3677 244.24C34.3677 243.948 34.1314 243.712 33.8401 243.712C33.5487 243.712 33.3125 243.948 33.3125 244.24C33.3125 244.532 33.5487 244.768 33.8401 244.768Z" fill="black"/>
<path opacity="0.1" d="M18.3186 22.9009C20.4351 22.9009 22.1509 21.1838 22.1509 19.0657C22.1509 16.9476 20.4351 15.2306 18.3186 15.2306C16.2021 15.2306 14.4863 16.9476 14.4863 19.0657C14.4863 21.1838 16.2021 22.9009 18.3186 22.9009Z" fill="white"/>
<path opacity="0.1" d="M386.367 144.859C389.2 144.859 391.496 142.561 391.496 139.726C391.496 136.891 389.2 134.593 386.367 134.593C383.534 134.593 381.238 136.891 381.238 139.726C381.238 142.561 383.534 144.859 386.367 144.859Z" fill="white"/>
<path opacity="0.1" d="M396.256 132.474C398.324 132.474 400 130.796 400 128.726C400 126.657 398.324 124.979 396.256 124.979C394.188 124.979 392.511 126.657 392.511 128.726C392.511 130.796 394.188 132.474 396.256 132.474Z" fill="white"/>
<path opacity="0.1" d="M24.9134 10.2661C27.7462 10.2661 30.0427 7.96799 30.0427 5.13307C30.0427 2.29816 27.7462 0 24.9134 0C22.0806 0 19.7842 2.29816 19.7842 5.13307C19.7842 7.96799 22.0806 10.2661 24.9134 10.2661Z" fill="white"/>
<path opacity="0.1" d="M5.12924 33.7316C7.96204 33.7316 10.2585 31.4334 10.2585 28.5985C10.2585 25.7636 7.96204 23.4655 5.12924 23.4655C2.29644 23.4655 0 25.7636 0 28.5985C0 31.4334 2.29644 33.7316 5.12924 33.7316Z" fill="white"/>
<defs>
<linearGradient id="paint0_linear" x1="193.127" y1="284.464" x2="193.127" y2="69.7914" gradientUnits="userSpaceOnUse">
<stop stop-color="#808080" stop-opacity="0.25"/>
<stop offset="0.54" stop-color="#808080" stop-opacity="0.12"/>
<stop offset="1" stop-color="#808080" stop-opacity="0.1"/>
</linearGradient>
</defs>
</svg>
